<?xml version="1.0" encoding="utf-8"?>
<!-- Generator: Adobe Illustrator 16.0.0, SVG Export Plug-In . SVG Version: 6.00 Build 0)  -->
<!DOCTYPE svg PUBLIC "-//W3C//DTD SVG 1.1//EN" "http://www.w3.org/Graphics/SVG/1.1/DTD/svg11.dtd">
<svg version="1.1" xmlns="http://www.w3.org/2000/svg" xmlns:xlink="http://www.w3.org/1999/xlink" x="0px" y="0px" width="1920px"
	 height="1080px" viewBox="0 0 1920 1080" enable-background="new 0 0 1920 1080" xml:space="preserve">
<g id="White_BG">
	<rect fill="#FFFFFF" width="1920" height="1080"/>
</g>
<g id="Layer_10">
	<rect fill="#FFFFFF" width="1920" height="1080"/>
</g>
<g id="Dark">
</g>
<g id="Monochromatic">
</g>
<g id="Circles__x28_0_1_x29_" display="none">
	<g display="inline">
		<defs>
			<rect id="SVGID_1_" x="46.226" y="-207.812" width="1501.332" height="1501.348"/>
		</defs>
		<clipPath id="SVGID_2_">
			<use xlink:href="#SVGID_1_"  overflow="visible"/>
		</clipPath>
		<path clip-path="url(#SVGID_2_)" fill="#394D6B" d="M245.158,449.924c-0.275-0.351-0.556-0.699-0.835-1.047
			c-24.558,24.128-37.207,56.644-36.782,96.071c0.283,26.164,7.807,50.589,20.634,71.384c-12.153-21.431-19.294-46.19-19.566-71.395
			C208.213,508.366,222.143,474.917,245.158,449.924"/>
		<path clip-path="url(#SVGID_2_)" fill="#394D6B" d="M228.174,616.332c23.281,41.052,64.97,69.881,112.11,66.213
			C292.987,680.362,251.673,654.433,228.174,616.332"/>
		<path clip-path="url(#SVGID_2_)" fill="#394D6B" d="M336.505,405.654c-27.663,2.046-53.053,12.249-73.792,28.197
			C282.363,420.529,307.057,410.983,336.505,405.654"/>
		<path clip-path="url(#SVGID_2_)" fill="#394D6B" d="M409.992,662.535c-18.031,9.085-38.787,15.544-61.716,19.093
			c-2.68,0.415-5.343,0.711-7.993,0.917c2.651,0.121,5.318,0.177,8.005,0.149c23.332-0.253,45.268-6.278,64.493-16.674
			C411.839,664.873,410.907,663.709,409.992,662.535"/>
		<path clip-path="url(#SVGID_2_)" fill="#394D6B" d="M345.287,404.205c-2.975,0.44-5.899,0.927-8.782,1.45
			c2.908-0.215,5.837-0.351,8.792-0.382c76.193-0.822,138.847,60.498,139.67,136.686c0.501,46.619-19.77,83.673-54.558,108.353
			c0.848,0.817,1.698,1.633,2.547,2.447c32.708-25.843,53.56-65.999,53.078-110.813
			C485.207,465.169,421.244,392.955,345.287,404.205"/>
		<path clip-path="url(#SVGID_2_)" fill="#394D6B" d="M402.886,707.985c-90.678,30.613-189.355-18.254-219.969-108.928
			c-30.613-90.675,7.465-169.46,108.93-219.964c85.678-42.648,189.354,18.251,219.968,108.928
			C542.427,578.693,493.561,677.373,402.886,707.985 M292.273,380.353c-89.984,30.378-138.475,128.3-108.095,218.276
			c30.378,89.983,133.539,150.972,218.282,108.098c93.243-47.18,138.474-128.301,108.093-218.279
			C480.175,398.465,382.254,349.973,292.273,380.353"/>
		<path clip-path="url(#SVGID_2_)" fill="#394D6B" d="M544.879,628.286c-46.886,109.688-174.27,160.777-283.954,113.892
			c-109.686-46.889-151.257-147.719-113.891-283.953c31.553-115.039,174.271-160.778,283.956-113.89
			C540.676,391.221,591.768,518.604,544.879,628.286 M148.559,458.877c-46.528,108.844,4.172,235.248,113.018,281.777
			c108.845,46.525,251.214,1.342,281.779-113.02c33.629-125.827-4.17-235.249-113.017-281.775
			C321.493,299.332,195.087,350.031,148.559,458.877"/>
	</g>
	
		<text transform="matrix(0.9999 -0.0108 0.0108 0.9999 415.1611 663.2656)" display="inline" fill="#C6D6EE" font-family="'Candara'" font-size="32.2972">1</text>
	
		<text transform="matrix(0.9999 -0.0108 0.0108 0.9999 244.9795 448.9863)" display="inline" fill="#C6D6EE" font-family="'Candara'" font-size="32.2972">0</text>
</g>
<g id="Circles">
	<g>
		<path fill="#394D6B" d="M402.145,705.47c-89.221,30.121-186.314-17.959-216.437-107.179
			c-30.121-89.221,7.346-166.741,107.181-216.435c84.302-41.963,186.313,17.958,216.436,107.179
			C539.446,578.255,491.364,675.35,402.145,705.47 M293.308,383.095c-88.537,29.891-136.25,126.24-106.358,214.776
			C216.84,686.41,318.344,746.417,401.726,704.23c91.744-46.418,136.249-126.24,106.356-214.777
			C478.192,400.917,381.844,353.204,293.308,383.095"/>
		<path fill="#394D6B" d="M541.857,627.052c-46.133,107.925-171.47,158.197-279.393,112.063
			C154.54,692.979,113.636,593.767,150.403,459.717c31.046-113.19,171.471-158.196,279.396-112.061
			C537.721,393.79,587.993,519.126,541.857,627.052 M151.902,460.359c-45.781,107.098,4.105,231.475,111.204,277.254
			c107.098,45.781,247.179,1.32,277.253-111.202c33.09-123.81-4.103-231.475-111.201-277.254
			C322.058,303.376,197.683,353.262,151.902,460.359"/>
		<path fill="#394D6B" d="M472.724,597.239c-29.77,69.645-110.651,102.086-180.295,72.313
			c-69.644-29.771-96.039-93.794-72.314-180.297c20.034-73.042,110.652-102.084,180.296-72.313
			C470.054,446.712,502.495,527.593,472.724,597.239 M221.083,489.669c-29.542,69.112,2.648,149.373,71.76,178.916
			c69.111,29.544,159.506,0.853,178.914-71.76c21.354-79.896-2.648-149.374-71.759-178.915
			C330.886,388.367,250.625,420.559,221.083,489.669"/>
	</g>
</g>
<g id="Glaucaus">
	<g>
		<defs>
			<rect id="SVGID_3_" x="46.588" y="-214.015" width="1508.007" height="1508.031"/>
		</defs>
		<clipPath id="SVGID_4_">
			<use xlink:href="#SVGID_3_"  overflow="visible"/>
		</clipPath>
		<path clip-path="url(#SVGID_4_)" fill="#6082B6" d="M384.405,474.309c0.05,0.35,0.099,0.701,0.149,1.051l0.149,1.054
			c1.044,0.512,2.1,0.867,3.175,0.979c1.075,0.11,2.169-0.025,3.286-0.497c0.188-3.313,2.056-5.381,4.263-7.333
			c2.206-1.95,4.749-3.785,6.285-6.629c-4.292,0.255-7.395,1.944-10.037,4.148C389.032,469.284,386.851,472.002,384.405,474.309"/>
		<path clip-path="url(#SVGID_4_)" fill="#6082B6" d="M340.847,521.667c0.787,0.194,1.087,0.557,1.151,1.006
			c0.063,0.446-0.112,0.977-0.277,1.503c-0.067,0.084-0.14,0.163-0.212,0.238c-0.075,0.075-0.15,0.146-0.227,0.215
			c0.222,0.035,0.439,0.082,0.645,0.165c0.205,0.083,0.399,0.203,0.573,0.381c0.186,0.327,0.276,0.654,0.271,0.982
			c-0.003,0.33-0.101,0.656-0.294,0.979c-0.35,0.583-0.698,1.165-1.047,1.745c-0.349,0.579-0.698,1.16-1.047,1.744l0.233,0.294
			l0.234,0.296c-0.151,0.176-0.251,0.373-0.321,0.581c-0.069,0.207-0.112,0.425-0.144,0.639c0.005-0.003,0.008-0.005,0.009-0.005
			c0.004-0.001,0.006-0.003,0.01-0.007c0.071-0.151,0.144-0.306,0.215-0.458c0.074-0.153,0.146-0.309,0.224-0.464
			c0.314,0.252,0.629,0.502,0.946,0.751c0.317,0.25,0.635,0.499,0.954,0.748c0.682,0.12,1.366,0.241,2.052,0.362
			c0.684,0.122,1.368,0.244,2.047,0.364l-0.06,1.744l-0.058,1.744c-0.69-0.229-1.368-0.502-2.048-0.778
			c-0.681-0.275-1.358-0.554-2.05-0.796c-0.071-0.03-0.144-0.053-0.219-0.077c-0.076-0.022-0.153-0.044-0.233-0.068
			c-0.027-0.009-0.055-0.021-0.083-0.035c-0.03-0.011-0.061-0.022-0.092-0.029c-0.07-0.037-0.14-0.072-0.21-0.11
			c-0.07-0.04-0.138-0.08-0.207-0.123c-0.015-0.004-0.031-0.011-0.043-0.019c-0.015-0.009-0.026-0.017-0.038-0.023
			c-0.105-0.062-0.208-0.124-0.309-0.19c-0.101-0.064-0.198-0.134-0.292-0.208l-0.004-0.006l-0.002-0.004
			c-0.019-0.01-0.035-0.017-0.047-0.025c-0.011-0.01-0.022-0.02-0.03-0.034c-0.03-0.016-0.053-0.031-0.075-0.048
			c-0.021-0.018-0.039-0.036-0.059-0.057c-0.015-0.003-0.029-0.009-0.04-0.016c-0.011-0.008-0.02-0.016-0.025-0.024
			c-0.109-0.086-0.215-0.176-0.322-0.27c-0.106-0.092-0.209-0.187-0.312-0.284l-0.02-0.034l-0.021-0.034
			c-0.1-0.157-0.19-0.321-0.271-0.485c-0.081-0.165-0.154-0.334-0.223-0.506c-0.071-0.197-0.133-0.396-0.184-0.599
			c-0.05-0.203-0.091-0.41-0.118-0.622c0.037-0.197,0.072-0.395,0.109-0.593c0.035-0.2,0.07-0.4,0.104-0.603
			c0.001-0.007,0.005-0.016,0.01-0.026c0.003-0.01,0.008-0.018,0.01-0.026c0.022-0.041,0.04-0.08,0.058-0.119
			c0.017-0.039,0.032-0.079,0.044-0.122c0.033-0.074,0.065-0.15,0.093-0.231c0.03-0.08,0.054-0.163,0.075-0.248
			c0.186-0.609,0.269-1.241,0.354-1.872c0.084-0.631,0.17-1.262,0.356-1.871c0.028-0.07,0.058-0.142,0.082-0.213
			c0.026-0.073,0.048-0.143,0.063-0.214c0.003-0.009,0.007-0.012,0.008-0.019c0.002-0.003,0.004-0.008,0-0.013
			c0.021-0.082,0.043-0.161,0.06-0.239c0.016-0.082,0.03-0.159,0.04-0.24c0.005-0.022,0.009-0.044,0.013-0.062
			c0.003-0.019,0.005-0.038,0.005-0.058c0.007-0.045,0.011-0.083,0.014-0.123c0.001-0.04,0.001-0.076-0.001-0.113
			c0.001-0.028,0.002-0.053,0.002-0.077c0.001-0.023,0-0.046-0.002-0.072c0.008-0.199-0.002-0.395-0.024-0.59
			c-0.023-0.195-0.06-0.391-0.104-0.591l-0.002-0.004l-0.003-0.005c-0.068-0.286-0.158-0.573-0.264-0.857
			c-0.104-0.284-0.226-0.565-0.357-0.847c-0.209-0.747-0.294-1.476-0.211-2.183c0.082-0.706,0.331-1.392,0.788-2.049
			c0.063,0.706,0.126,1.411,0.188,2.116C340.721,520.255,340.784,520.962,340.847,521.667"/>
		<path clip-path="url(#SVGID_4_)" fill="#6082B6" d="M348.239,491.968l0.003,0.005l0.002,0.004l-0.007,0.126l-0.007,0.126v0.012
			l0.001,0.014l-0.055,1.592l-0.055,1.591l-0.002,0.017l-0.004,0.016l0.004,0.004l0.002,0.005l-0.014,0.351l-0.014,0.352
			l-0.001,0.048l-0.003,0.048l-0.202,6.086l-0.205,6.086c0.031-2.182,0.06-4.362,0.09-6.542c0.029-2.179,0.058-4.358,0.092-6.536
			c-0.873-0.201-1.711-0.571-2.497-1.178c-0.785-0.608-1.518-1.455-2.179-2.607c-0.195-0.044-0.394-0.088-0.593-0.125
			c-0.2-0.039-0.4-0.074-0.6-0.104c-0.568,1.926-0.412,3.801-0.098,5.663c0.314,1.863,0.783,3.711,0.839,5.584
			c0.037,1.024,0.831,2.369,1,3.551c0.169,1.181-0.287,2.197-2.748,2.565c0.38-1.758,0.249-3.453-0.106-5.104
			c-0.355-1.65-0.936-3.259-1.455-4.846c-0.536-1.635-0.891-3.138-0.71-4.493c0.18-1.355,0.895-2.568,2.5-3.621l0.047-0.031
			l0.049-0.03c0.118-0.048,0.237-0.091,0.36-0.127c0.123-0.038,0.248-0.07,0.372-0.095l0.005-0.002l0.004-0.003
			c0.304-0.063,0.609-0.095,0.918-0.097c0.311-0.003,0.622,0.025,0.938,0.08c0.116,0.054,0.229,0.111,0.342,0.164
			c0.113,0.056,0.228,0.108,0.345,0.155c0.548,0.25,1.099,0.481,1.653,0.683c0.556,0.204,1.114,0.381,1.677,0.527
			c0.035,0.013,0.071,0.022,0.109,0.032c0.039,0.011,0.079,0.02,0.117,0.028c0.011,0.005,0.023,0.011,0.038,0.016
			C348.208,491.961,348.223,491.965,348.239,491.968"/>
		<path clip-path="url(#SVGID_4_)" fill="#394D6B" d="M349.406,455.5c-0.003,0.029-0.004,0.057-0.004,0.085
			c-0.001,0.029,0.001,0.059,0.005,0.089c-0.007,0.2-0.003,0.398,0.008,0.597c0.014,0.199,0.031,0.399,0.05,0.6
			c-0.008,0.282-0.005,0.563,0.01,0.84c0.017,0.28,0.047,0.556,0.093,0.83c0,0.02,0,0.037,0.001,0.051
			c0.001,0.017,0.004,0.032,0.01,0.049c-0.039,0.004-0.077,0.007-0.115,0.009c-0.036,0.002-0.074,0.002-0.11-0.002l-0.104,3.169
			l-0.105,3.17l-0.406,12.111l-0.403,12.11l-0.003,0.028l-0.001,0.028l-0.047,1.351l-0.043,1.352l0.002,0.005l0.002,0.005
			l-0.007,0.125l-0.008,0.127c-0.013,0-0.024-0.001-0.037-0.004c-0.011-0.002-0.023-0.006-0.036-0.005
			c-0.04-0.009-0.079-0.018-0.118-0.025c-0.04-0.006-0.08-0.011-0.12-0.013c-0.785-0.134-1.571-0.253-2.359-0.352
			c-0.787-0.1-1.578-0.181-2.372-0.244c-0.195-0.044-0.393-0.088-0.591-0.126c-0.2-0.039-0.4-0.073-0.6-0.101
			c-0.142-0.119-0.277-0.238-0.408-0.356c-0.129-0.118-0.253-0.234-0.372-0.347c-2.91-2.842-2.875-5.512-1.915-8.125
			c0.961-2.614,2.846-5.171,3.635-7.793c0.577-1.467,0.677-2.89,0.416-4.232c-0.261-1.343-0.883-2.605-1.753-3.748
			c-1.609-2.12-2.047-3.912-1.599-5.492c0.445-1.581,1.778-2.949,3.706-4.223c0.01-0.005,0.018-0.008,0.026-0.01
			c0.01-0.002,0.019-0.004,0.028-0.011c0.096,0.046,0.196,0.092,0.294,0.134c0.1,0.044,0.2,0.085,0.297,0.123
			c0.094,0.042,0.191,0.083,0.289,0.126c0.1,0.042,0.199,0.084,0.298,0.122c0.585,0.236,1.17,0.439,1.752,0.601
			c0.583,0.16,1.161,0.277,1.73,0.339c0.081,0.012,0.161,0.021,0.241,0.03c0.078,0.008,0.157,0.015,0.234,0.021
			c0.034-0.002,0.066,0.002,0.098,0.005c0.032,0.003,0.064,0.006,0.098,0.006l0.055-1.454l0.056-1.452l-0.001-0.044l-0.002-0.046
			c0.034-0.008,0.071-0.016,0.107-0.021C349.342,455.509,349.376,455.505,349.406,455.5"/>
		<path clip-path="url(#SVGID_4_)" fill="#394D6B" d="M349.2,455.536l-0.055,1.499l-0.053,1.498
			c-0.862-0.038-1.746-0.208-2.639-0.472c-0.892-0.264-1.793-0.621-2.692-1.036c0.899-0.298,1.805-0.599,2.712-0.859
			C347.38,455.903,348.291,455.682,349.2,455.536"/>
		<path clip-path="url(#SVGID_4_)" fill="#6082B6" d="M346.844,533.726l-0.059,1.744l-0.059,1.744l-0.507,15.137l-0.507,15.136
			l-0.051,1.51l-0.054,1.512c-1.728,0.111-3.272-0.515-4.784-1.262c-1.513-0.745-2.995-1.612-4.598-1.98
			c-0.025-0.019-0.048-0.032-0.067-0.044c-0.02-0.014-0.038-0.024-0.055-0.041c-0.003-0.005-0.004-0.009-0.005-0.009v-0.001
			c0.001-0.008,0.002-0.013,0.001-0.015c-0.001-0.001-0.006-0.004-0.015-0.004c-0.107-0.087-0.21-0.178-0.31-0.27
			c-0.099-0.091-0.191-0.187-0.28-0.285c-0.058-0.058-0.112-0.116-0.165-0.178c-0.053-0.06-0.106-0.121-0.158-0.182
			c-0.07-0.09-0.139-0.184-0.208-0.282c-0.068-0.098-0.135-0.2-0.203-0.304c-0.015-0.024-0.029-0.047-0.042-0.068
			c-0.012-0.023-0.024-0.046-0.034-0.073c-0.028-0.043-0.058-0.089-0.083-0.136c-0.028-0.046-0.055-0.092-0.078-0.14
			c-0.013-0.044-0.03-0.091-0.045-0.137c-0.017-0.049-0.034-0.095-0.048-0.14c0,0,0-0.004,0-0.007s-0.001-0.005-0.007-0.003
			c-0.183-0.574-0.309-1.164-0.425-1.756c-0.114-0.589-0.216-1.182-0.353-1.77c-0.021-1.711,0.751-3.162,1.518-4.615
			c0.769-1.452,1.532-2.905,1.496-4.622c0.02-0.127,0.038-0.252,0.056-0.378c0.018-0.125,0.037-0.25,0.058-0.378
			c0-0.021,0.003-0.041,0.008-0.06c0.004-0.021,0.008-0.04,0.01-0.061c0.031-0.175,0.06-0.346,0.088-0.519s0.057-0.345,0.088-0.519
			c0.001-0.021,0.005-0.044,0.009-0.064c0.005-0.021,0.011-0.045,0.019-0.062l0.013-0.055l0.013-0.056
			c0.037-0.198,0.073-0.391,0.111-0.585c0.039-0.194,0.081-0.388,0.129-0.586c0.006-0.025,0.012-0.052,0.017-0.079
			c0.007-0.027,0.013-0.054,0.019-0.08c0.101-0.317,0.202-0.633,0.305-0.948c0.104-0.316,0.207-0.63,0.311-0.943
			c0.015-0.05,0.032-0.104,0.049-0.158c0.015-0.055,0.032-0.107,0.047-0.159c0.277-0.826,0.546-1.653,0.78-2.49
			c0.235-0.837,0.437-1.683,0.577-2.545c0.012-0.075,0.026-0.148,0.041-0.22c0.013-0.072,0.025-0.143,0.032-0.216
			c0.02-0.16,0.043-0.321,0.066-0.482c0.022-0.161,0.046-0.319,0.068-0.476c0.045-0.291,0.092-0.576,0.143-0.859
			c0.049-0.282,0.1-0.563,0.15-0.844c0.042-0.222,0.085-0.44,0.13-0.658c0.045-0.218,0.093-0.436,0.143-0.655
			c0.04-0.213,0.085-0.427,0.134-0.64c0.049-0.212,0.1-0.423,0.151-0.629c0.013-0.055,0.022-0.105,0.031-0.15
			c0.012-0.047,0.022-0.093,0.042-0.137c-0.002-0.004-0.004-0.008-0.005-0.01c0-0.004,0.001-0.009,0.003-0.015
			c0.001-0.009,0.004-0.02,0.007-0.031c0.002-0.013,0.005-0.025,0.007-0.032c0.041-0.127,0.086-0.25,0.14-0.37
			c0.051-0.12,0.108-0.236,0.171-0.351c0.001-0.007,0.002-0.016,0.005-0.021c0.002-0.006,0.008-0.008,0.017-0.007
			c0.039-0.085,0.083-0.171,0.132-0.251s0.104-0.159,0.165-0.231c0.083-0.127,0.173-0.245,0.269-0.357
			c0.098-0.111,0.202-0.217,0.312-0.319c0.167-0.086,0.338-0.172,0.511-0.254c0.171-0.083,0.344-0.166,0.515-0.247
			c0.68,0.12,1.366,0.241,2.051,0.363C345.479,533.484,346.165,533.606,346.844,533.726"/>
		<path clip-path="url(#SVGID_4_)" fill="#1C1C1C" d="M328.617,587.32l0.03,0.047l0.029,0.048c-0.018,0.032-0.036,0.063-0.053,0.096
			c-0.018,0.031-0.035,0.062-0.055,0.095l0.022-0.137l0.022-0.134l0.001-0.008L328.617,587.32z"/>
		<path clip-path="url(#SVGID_4_)" fill="#6082B6" d="M345.323,578.962l-0.061,1.953l-0.062,1.953c-1.5,2.123-2.48,4.55-3.521,6.941
			c-1.043,2.392-2.146,4.748-3.889,6.729c-1.582,1.047-3.039,2.223-4.435,3.473c-1.398,1.252-2.735,2.577-4.08,3.925
			c-2.689,2.694-5.436,5.377-8.88,7.495c-3.443,2.115-7.585,3.666-13.063,4.093c2.647-1.674,4.824-2.938,6.695-4.081
			c1.873-1.143,3.439-2.164,4.873-3.352c1.556-1.287,2.962-2.756,4.349-4.252c1.389-1.494,2.758-3.016,4.242-4.404
			c2.016-1.88,3.064-3.804,3.232-5.798c0.168-1.995-0.543-4.062-2.044-6.223c0.159-0.269,0.319-0.538,0.475-0.806
			c0.158-0.269,0.313-0.539,0.464-0.81c-0.077-0.421-0.164-0.839-0.216-1.26c-0.053-0.423-0.074-0.846-0.018-1.279
			c0.092-0.278,0.212-0.544,0.357-0.797c0.145-0.251,0.315-0.486,0.508-0.702c0.113-0.099,0.227-0.198,0.343-0.297
			c0.114-0.1,0.229-0.199,0.342-0.298c0.223-0.221,0.435-0.46,0.629-0.713c0.192-0.253,0.365-0.52,0.51-0.8
			c0.613-1.208,1.111-2.451,1.444-3.74c0.334-1.29,0.504-2.623,0.468-4.01c0.007-0.031,0.011-0.063,0.014-0.091
			c0.002-0.03,0.004-0.063,0.002-0.094c0.034-0.257,0.057-0.512,0.073-0.771c0.017-0.257,0.028-0.517,0.039-0.777
			c0.018-0.447,0.033-0.897,0.078-1.342c0.046-0.442,0.121-0.881,0.262-1.307c0.006-0.002,0.006-0.006,0.006-0.008
			c0-0.005-0.001-0.007-0.001-0.007c0.032-0.087,0.067-0.177,0.104-0.266c0.038-0.09,0.08-0.178,0.123-0.267
			c0.025-0.056,0.052-0.111,0.082-0.164c0.028-0.053,0.059-0.106,0.091-0.16c0.04-0.065,0.083-0.13,0.128-0.192
			c0.045-0.064,0.093-0.129,0.14-0.191l0.024-0.015l0.023-0.016c0.053-0.047,0.109-0.089,0.167-0.128
			c0.058-0.041,0.116-0.076,0.167-0.11c0.265-0.154,0.547-0.261,0.842-0.314c0.295-0.051,0.602-0.047,0.921,0.021
			c1.41,0.298,2.816,0.594,4.222,0.89c1.407,0.297,2.814,0.593,4.223,0.891l-0.053,1.51l-0.051,1.512l-0.062,1.784l-0.061,1.785
			l-0.001,0.007l-0.002,0.009l-0.062,1.953l-0.061,1.951l-0.018,0.483L345.323,578.962z"/>
		<path clip-path="url(#SVGID_4_)" fill="#394D6B" d="M321.724,537.758c-2.958,2.618-6.254,4.071-9.734,4.881
			c-3.479,0.809-7.142,0.971-10.833,1.009c-3.549,0.036-7.1,0.042-10.646,0.195c-3.548,0.153-7.09,0.456-10.626,1.093
			c7.008,2.566,13.995,3.986,20.961,3.988c6.968,0,13.914-1.42,20.834-4.537c2.039,0.592,4.062,1.01,6.039,0.933
			c1.979-0.076,3.912-0.65,5.767-2.044c0.452-0.612,0.749-1.263,0.909-1.944c0.16-0.685,0.186-1.399,0.098-2.145
			c-0.12-0.478-0.297-0.923-0.532-1.336c-0.234-0.413-0.524-0.794-0.872-1.143c-2.029-1.299-4.014-2.112-5.921-2.061
			C325.264,534.696,323.437,535.607,321.724,537.758"/>
		<path clip-path="url(#SVGID_4_)" fill="#394D6B" d="M304.375,486.941c-5.255,0.098-10.512,0.144-15.769,0.228
			c-5.257,0.083-10.51,0.206-15.759,0.452c-2.216,0.104-4.515,0.279-6.74,1.15c-2.226,0.872-4.379,2.441-6.303,5.338
			c7.408-1.575,14.468-2.58,21.366-2.911c6.898-0.331,13.631,0.016,20.381,1.146c0.993,0.938,1.958,1.93,3.056,2.685
			c1.101,0.756,2.335,1.274,3.871,1.266c1.024,0.091,1.946-0.051,2.766-0.419c0.821-0.365,1.54-0.959,2.164-1.773
			c0.833-1.005,1.404-2.052,1.614-3.156c0.208-1.105,0.056-2.265-0.558-3.5c-1.032-1.38-2.249-1.903-3.555-2.024
			c-1.305-0.122-2.698,0.156-4.079,0.376c-0.411,0.185-0.821,0.372-1.232,0.561C305.191,486.55,304.783,486.744,304.375,486.941"/>
		<path clip-path="url(#SVGID_4_)" fill="#C6D6EE" d="M342.938,474.741c-0.15,2.6-0.296,5.206-0.443,7.812
			c-0.145,2.605-0.291,5.212-0.438,7.815l-0.004,0.003l-0.006,0.004c-0.002,0.164-0.011,0.327-0.019,0.49
			c-0.01,0.164-0.021,0.329-0.029,0.495c-0.57,1.926-0.412,3.8-0.098,5.662c0.314,1.862,0.783,3.71,0.839,5.583
			c0.037,1.024,0.832,2.369,1.001,3.55c0.168,1.182-0.288,2.198-2.749,2.565c-1.621-2.67-2.553-5.781-3.875-8.642
			c-1.324-2.86-3.037-5.471-6.221-7.139c-2.556-3.255-1.522-5.389,0.156-7.32c1.679-1.931,4.005-3.66,4.037-6.105
			c1.308-0.8,2.618-1.597,3.926-2.393C340.322,476.328,341.631,475.532,342.938,474.741"/>
		<path clip-path="url(#SVGID_4_)" fill="#394D6B" d="M311.156,492.428c-0.598,0.385-1.194,0.772-1.792,1.159
			c-0.597,0.385-1.195,0.77-1.792,1.157c-0.261,0.316-0.421,0.649-0.479,0.998c-0.058,0.351-0.015,0.716,0.13,1.101
			c-0.749,3.592-2.621,5.885-5.027,7.547c-2.404,1.663-5.344,2.694-8.223,3.76c-1.841,0.682-3.717,1.278-5.553,1.967
			c-1.836,0.689-3.635,1.475-5.323,2.531c5.925,0.311,11.348-0.58,16.26-2.678c4.914-2.099,9.316-5.409,13.2-9.945
			c1.034,0.339,1.914,0.308,2.668-0.028c0.754-0.334,1.382-0.977,1.909-1.863c0.188-0.425,0.31-0.859,0.372-1.304
			c0.06-0.444,0.059-0.896-0.005-1.357c-0.089-0.456-0.234-0.883-0.436-1.283c-0.2-0.402-0.455-0.776-0.763-1.122
			c-0.78-0.732-1.621-0.969-2.49-0.985C312.941,492.07,312.045,492.276,311.156,492.428"/>
		<path clip-path="url(#SVGID_4_)" fill="#6082B6" d="M321.724,537.758c1.736,1.397,3.498,1.11,5.264,0.639
			c1.765-0.471,3.532-1.129,5.281-0.469c0.076-0.17,0.153-0.342,0.229-0.513c0.077-0.17,0.155-0.34,0.232-0.513
			c0.005-0.38-0.039-0.749-0.128-1.105c-0.089-0.358-0.225-0.705-0.406-1.038c-0.388-0.396-0.81-0.772-1.146-1.202
			c-0.338-0.428-0.593-0.915-0.648-1.529c-4.595-2.533-8.933-2.754-13.458-1.876c-4.528,0.877-9.243,2.851-14.594,4.705
			c4.001,0.823,7.489,1.006,10.654,1.254C316.169,536.36,319.013,536.674,321.724,537.758"/>
		<path clip-path="url(#SVGID_4_)" fill="#6082B6" d="M330.891,492.939c0.804-2.205,2.612-4.097,3.839-6.168
			c1.227-2.073,1.875-4.327,0.356-7.257l-5.162,1.544c-1.72,0.514-3.442,1.029-5.164,1.544c-3.841-0.481-5.958-0.477-7.054,0.886
			c-1.095,1.363-1.167,4.084-0.923,9.04c0.576,1.131,1.51,1.66,2.523,2.056c1.016,0.394,2.11,0.656,3.005,1.251
			c1.43-0.482,2.859-0.965,4.292-1.448C328.032,493.903,329.462,493.422,330.891,492.939"/>
		<path clip-path="url(#SVGID_4_)" fill="#C6D6EE" d="M335.816,566.425c0.244-0.114,0.487-0.231,0.729-0.352
			c0.243-0.12,0.485-0.239,0.725-0.364c-0.059-0.302-0.118-0.609-0.177-0.914c-0.059-0.305-0.117-0.608-0.176-0.914
			c-0.106-0.311-0.131-0.603-0.068-0.875c0.062-0.271,0.211-0.521,0.454-0.749c1.529-1.518,2.111-3.232,2.292-5.027
			c0.178-1.797-0.042-3.676-0.119-5.524c-0.124-0.132-0.25-0.265-0.375-0.398c-0.125-0.132-0.251-0.266-0.378-0.401
			c-0.234-0.292-0.462-0.589-0.686-0.893c-0.22-0.302-0.437-0.608-0.647-0.923c-0.528-0.911-1.123-1.712-1.879-2.244
			c-0.759-0.534-1.679-0.8-2.859-0.644c-2.38,1.57-3.719,3.569-4.468,5.813c-0.751,2.243-0.916,4.731-0.942,7.273
			c0.063,1.206,0.136,2.409,0.404,3.557c0.268,1.146,0.733,2.233,1.581,3.21c0.589,0.932,1.314,1.335,2.113,1.453
			c0.799,0.12,1.67-0.045,2.552-0.248c0.335-0.104,0.665-0.226,0.986-0.364C335.198,566.758,335.512,566.601,335.816,566.425"/>
		<path clip-path="url(#SVGID_4_)" fill="#6082B6" d="M332.623,541.437c-1.871,0.312-3.808,0.387-5.676,0.716
			c-1.867,0.328-3.667,0.909-5.266,2.234c-0.965,2.492-3.003,4.05-5.029,5.645c-2.024,1.594-4.037,3.225-4.954,5.867
			c3.318,0.706,5.882-0.333,8.239-1.834s4.507-3.461,6.999-4.598c1.619,0.121,2.728-0.553,3.696-1.446
			c0.97-0.893,1.797-2.006,2.856-2.757c0.201-0.339,0.356-0.69,0.463-1.055c0.105-0.365,0.165-0.744,0.171-1.139
			c-0.128-0.382-0.319-0.71-0.571-0.981C333.298,541.817,332.988,541.603,332.623,541.437"/>
		<path clip-path="url(#SVGID_4_)" fill="#394D6B" d="M314.133,482.145c0.117,0.998,0.016,1.933-0.264,2.811
			c-0.281,0.879-0.739,1.705-1.335,2.488c0.403,1.003,0.468,1.913,0.228,2.739c-0.242,0.828-0.786,1.571-1.6,2.241
			c0.671,0.313,1.343,0.626,2.016,0.938c0.673,0.311,1.347,0.622,2.022,0.934c0.349,0.083,0.693,0.105,1.033,0.074
			c0.34-0.03,0.674-0.116,1.006-0.251c0.277-0.235,0.488-0.504,0.637-0.806c0.146-0.3,0.229-0.633,0.253-0.994
			c1.078-0.709,2.865-0.917,3.953-1.598c1.088-0.682,1.476-1.835-0.244-4.436c-0.944-1.424-0.542-2.096,0.261-2.537
			c0.803-0.44,2.005-0.648,2.662-1.146c0.185-0.206,0.358-0.418,0.521-0.637c0.165-0.221,0.317-0.448,0.461-0.684
			c-0.016-0.44-0.121-0.819-0.328-1.134c-0.206-0.313-0.511-0.561-0.925-0.738c-0.414-0.082-0.824-0.178-1.23-0.288
			c-0.406-0.11-0.809-0.234-1.209-0.374c-1.935-0.866-3.629-1.17-4.981-0.681C315.715,478.555,314.705,479.837,314.133,482.145"/>
		<path clip-path="url(#SVGID_4_)" fill="#C6D6EE" d="M345.323,578.962c-3.206,2.067-4.951,4.778-5.964,7.814
			c-1.013,3.038-1.293,6.396-1.569,9.763c1.558-0.542,2.912-1.254,4.09-2.113c1.178-0.858,2.181-1.864,3.037-2.996l-0.003-0.006
			l-0.002-0.004l0.144-4.275l0.145-4.276l0.062-1.953L345.323,578.962z"/>
		<path clip-path="url(#SVGID_4_)" fill="#C6D6EE" d="M329.623,585.8c0.398-0.298,0.795-0.597,1.192-0.896
			c0.399-0.297,0.795-0.598,1.194-0.897c0.581,0.205,1.018,0.204,1.315-0.001c0.297-0.205,0.454-0.615,0.468-1.229
			c1.024-1.649,1.984-3.32,2.653-5.087c0.668-1.766,1.045-3.63,0.905-5.664c0.061-0.311,0.063-0.592,0.009-0.845
			c-0.056-0.251-0.169-0.473-0.339-0.664c-0.176-0.197-0.32-0.337-0.436-0.417c-0.114-0.082-0.197-0.105-0.252-0.071
			c-0.423-0.079-0.839-0.097-1.252-0.059c-0.413,0.037-0.821,0.132-1.222,0.278c-0.577,0.347-1.036,0.769-1.365,1.274
			c-0.33,0.506-0.531,1.096-0.591,1.775c-0.507,0.324-1.016,0.65-1.522,0.976c-0.508,0.325-1.015,0.651-1.522,0.975
			c-0.474,1.79-1.569,2.912-2.855,3.834c-1.287,0.919-2.762,1.639-3.994,2.626c-1.052,0.841-2.5,1.447-3.489,2.354
			c-0.99,0.909-1.522,2.118-0.74,4.163c1.877-0.873,3.74-1.815,5.683-2.374C325.406,585.294,327.428,585.126,329.623,585.8"/>
		<path clip-path="url(#SVGID_4_)" fill="#6082B6" d="M307.222,496.843c0.059-0.349,0.116-0.698,0.173-1.049
			c0.059-0.349,0.116-0.699,0.175-1.048c-0.842-0.803-1.743-1.46-2.734-1.888c-0.992-0.43-2.075-0.628-3.285-0.514
			c-1.172,3.103-3.577,4.515-6.269,5.712c-2.692,1.198-5.667,2.183-7.986,4.432c4.167,1.048,7.637,0.37,10.819-0.937
			S304.194,498.308,307.222,496.843"/>
		<path clip-path="url(#SVGID_4_)" fill="#7CA8EB" d="M317.778,588.225c1.122-2.782,4.033-4.035,6.594-5.59
			c2.56-1.553,4.769-3.406,4.485-7.388c-3.532,2.582-7.452,4.745-10.995,7.402s-6.707,5.814-8.723,10.388
			c2.062-0.101,3.517-0.969,4.807-1.979C315.239,590.047,316.366,588.894,317.778,588.225"/>
		<path clip-path="url(#SVGID_4_)" fill="#C6D6EE" d="M316.904,497.301l-2.174,1.363c-0.725,0.453-1.449,0.906-2.174,1.361
			c0.409,2.308-0.367,4.556-0.996,6.923c-0.626,2.367-1.104,4.853-0.097,7.638c2.917-2.744,4.967-5.584,6.2-8.624
			c1.231-3.042,1.648-6.285,1.297-9.837c-0.538-0.144-0.978-0.119-1.32,0.077C317.298,496.399,317.052,496.765,316.904,497.301"/>
		<path clip-path="url(#SVGID_4_)" fill="#394D6B" d="M306.265,485.208c-5.114-1.219-10.24-2.388-15.356-3.593
			c-5.116-1.207-10.222-2.449-15.298-3.813c-2.141-0.575-4.349-1.236-6.338-2.563c-1.988-1.327-3.756-3.321-5.015-6.561
			c6.897,3.121,13.583,5.614,20.249,7.412c6.668,1.795,13.32,2.897,20.155,3.236c1.171-0.704,2.325-1.466,3.561-1.969
			c1.236-0.502,2.552-0.745,4.051-0.409c1.021,0.131,1.891,0.464,2.614,1c0.722,0.534,1.298,1.266,1.732,2.194
			c0.6,1.161,0.933,2.306,0.902,3.43c-0.032,1.123-0.43,2.224-1.292,3.299c-1.303,1.128-2.606,1.378-3.907,1.217
			c-1.301-0.159-2.601-0.729-3.903-1.239c-0.361-0.269-0.724-0.538-1.082-0.813C306.979,485.763,306.621,485.487,306.265,485.208"/>
		<path clip-path="url(#SVGID_4_)" fill="#394D6B" d="M388.943,476.359c5.019-1.557,10.027-3.163,15.043-4.733
			c5.018-1.568,10.044-3.101,15.104-4.514c2.138-0.594,4.375-1.152,6.761-1.022c2.387,0.128,4.923,0.944,7.659,3.09
			c-7.526,0.83-14.546,2.089-21.2,3.94c-6.654,1.851-12.939,4.291-18.992,7.482c-0.65,1.202-1.253,2.446-2.061,3.509
			c-0.807,1.061-1.817,1.94-3.277,2.415c-0.946,0.408-1.865,0.563-2.76,0.472c-0.894-0.091-1.762-0.429-2.61-1.006
			c-1.106-0.694-1.977-1.51-2.521-2.492c-0.545-0.982-0.766-2.133-0.57-3.497c0.546-1.635,1.539-2.513,2.739-3.038
			c1.203-0.525,2.612-0.698,3.991-0.922c0.448,0.047,0.896,0.095,1.347,0.148C388.044,476.243,388.495,476.3,388.943,476.359"/>
		<path clip-path="url(#SVGID_4_)" fill="#394D6B" d="M314.061,481.296c-0.501-0.504-1.002-1.01-1.504-1.513
			c-0.501-0.505-1.001-1.01-1.502-1.515c-0.188-0.365-0.272-0.725-0.254-1.078c0.019-0.355,0.138-0.704,0.36-1.047
			c0.039-3.669-1.3-6.31-3.295-8.447c-1.995-2.138-4.646-3.773-7.23-5.429c-1.653-1.062-3.358-2.043-5.004-3.11
			c-1.646-1.067-3.235-2.216-4.658-3.611c5.854,0.965,10.961,2.992,15.313,6.092c4.351,3.101,7.944,7.276,10.769,12.536
			c1.081-0.108,1.934,0.11,2.6,0.599c0.665,0.489,1.143,1.249,1.468,2.226c0.091,0.457,0.119,0.907,0.084,1.355
			c-0.037,0.446-0.134,0.887-0.296,1.323c-0.186,0.426-0.419,0.813-0.7,1.162c-0.28,0.349-0.609,0.661-0.983,0.931
			c-0.919,0.549-1.791,0.601-2.644,0.429C315.729,482.028,314.897,481.635,314.061,481.296"/>
		<path clip-path="url(#SVGID_4_)" fill="#6082B6" d="M311.161,476.143c-0.018,0.354-0.037,0.707-0.055,1.061
			c-0.018,0.354-0.036,0.708-0.055,1.063c-0.994,0.604-2.013,1.052-3.075,1.259c-1.059,0.208-2.161,0.17-3.316-0.199
			c-0.483-3.283-2.53-5.177-4.903-6.922c-2.373-1.745-5.07-3.343-6.855-6.037c4.297-0.133,7.539,1.271,10.37,3.229
			C306.101,471.554,308.517,474.065,311.161,476.143"/>
		<path clip-path="url(#SVGID_4_)" fill="#C6D6EE" d="M320.718,477.765c-0.61-0.6-1.222-1.196-1.832-1.795
			c-0.612-0.598-1.224-1.197-1.833-1.794c0.894-2.168,0.614-4.529,0.509-6.976c-0.108-2.447-0.044-4.977,1.535-7.484
			c2.264,3.305,3.659,6.518,4.213,9.751c0.554,3.234,0.266,6.492-0.835,9.886c-0.556,0.026-0.98-0.094-1.272-0.358
			C320.91,478.729,320.748,478.319,320.718,477.765"/>
		<path clip-path="url(#SVGID_4_)" fill="#7CA8EB" d="M331.902,573.297c0.431-0.323,0.861-0.646,1.29-0.967
			c0.43-0.323,0.862-0.645,1.292-0.967c0.167-0.313,0.303-0.636,0.406-0.969c0.103-0.333,0.175-0.677,0.212-1.028
			c-0.011-0.706-0.091-1.406-0.176-2.105c-0.085-0.698-0.175-1.396-0.208-2.101c-1.082-0.875-2-0.732-2.874-0.329
			c-0.874,0.402-1.705,1.063-2.62,1.225c-0.511,2.938-2.521,4.373-4.728,5.673c-2.207,1.299-4.613,2.464-5.915,4.86
			c2.761,1.253,4.837-0.026,6.85-1.392S329.393,572.381,331.902,573.297"/>
		<path clip-path="url(#SVGID_4_)" fill="#394D6B" d="M349.288,452.915l-0.042,1.29l-0.044,1.291l-0.002,0.021v0.02l-0.054,1.499
			l-0.053,1.498c-0.863-0.037-1.748-0.208-2.64-0.472c-0.891-0.263-1.792-0.621-2.691-1.033c-0.017-0.004-0.03-0.011-0.046-0.018
			c-0.013-0.008-0.029-0.016-0.044-0.02c0.493-1.526,1.25-2.633,2.208-3.315C346.837,452.995,347.996,452.738,349.288,452.915"/>
		<path clip-path="url(#SVGID_4_)" fill="#394D6B" d="M308.546,617.157c-1.962,2.862-4.728,4.683-7.583,6.387
			c-2.855,1.703-5.798,3.29-8.118,5.688c4.342-1.414,8.272-3.445,12.055-6c3.784-2.557,7.417-5.634,11.162-9.141
			c-1.949-0.038-3.363,0.367-4.522,0.963C310.38,615.649,309.476,616.436,308.546,617.157"/>
		<path clip-path="url(#SVGID_4_)" fill="#C6D6EE" d="M331.313,544.321l-2.188,2.572l-2.19,2.576
			c-0.424,1.65-1.185,3.313-1.421,4.957c-0.236,1.646,0.053,3.275,1.727,4.862c1.55-1.823,2.312-4.074,3.141-6.287
			c0.832-2.212,1.733-4.387,3.563-6.057c0.014-0.193,0.027-0.386,0.042-0.579c0.014-0.191,0.028-0.385,0.042-0.577
			c-0.245-0.626-0.603-1.05-1.058-1.287C332.513,544.264,331.957,544.211,331.313,544.321"/>
		<path clip-path="url(#SVGID_4_)" fill="#6082B6" d="M340.847,521.667c0.787,0.194,1.087,0.557,1.151,1.006
			c0.063,0.446-0.112,0.977-0.277,1.503c-0.067,0.084-0.14,0.163-0.212,0.238c-0.075,0.075-0.15,0.146-0.227,0.215
			c-0.077,0.062-0.152,0.12-0.232,0.176c-0.08,0.055-0.162,0.106-0.245,0.152c-0.027,0.024-0.058,0.043-0.09,0.06
			c-0.033,0.019-0.067,0.033-0.099,0.047c-0.109,0.063-0.224,0.114-0.344,0.159c-0.119,0.046-0.241,0.083-0.369,0.117
			c-0.183-0.034-0.364-0.065-0.546-0.099l-0.546-0.098c0.005-0.077,0.007-0.153,0.007-0.227c0-0.076-0.004-0.15-0.011-0.226
			c-0.072-1.283-0.734-2.697-0.839-3.988c-0.105-1.293,0.347-2.465,2.5-3.268c0.063,0.706,0.126,1.411,0.188,2.116
			C340.721,520.255,340.784,520.962,340.847,521.667"/>
		<path clip-path="url(#SVGID_4_)" fill="#394D6B" d="M316.904,497.301c0.342-0.196,0.686-0.393,1.027-0.588
			c0.342-0.196,0.687-0.393,1.028-0.588c0.559-0.048,1.117-0.097,1.675-0.146c0.559-0.047,1.117-0.096,1.677-0.145
			c-0.207-1.17-0.843-1.828-1.632-2.304c-0.791-0.477-1.733-0.77-2.551-1.212c-0.265,0.202-0.529,0.404-0.794,0.606
			c-0.265,0.203-0.53,0.403-0.796,0.606c-0.114,0.394-0.188,0.789-0.222,1.189c-0.034,0.4-0.032,0.803,0.009,1.209
			c0.128,0.215,0.241,0.438,0.338,0.666C316.759,496.824,316.84,497.06,316.904,497.301"/>
		<path clip-path="url(#SVGID_4_)" fill="#C6D6EE" d="M330.402,532.029c-0.578,0.829-0.59,1.527-0.338,2.162
			c0.253,0.637,0.771,1.214,1.251,1.796c0.984,0.289,1.827,0.259,2.542-0.067c0.713-0.324,1.3-0.942,1.768-1.826
			c0.072-0.312,0.09-0.601,0.053-0.87c-0.039-0.27-0.131-0.519-0.278-0.748c-0.155-0.239-0.284-0.409-0.384-0.512
			c-0.103-0.105-0.176-0.141-0.225-0.111c-0.731,0.03-1.463,0.059-2.195,0.088C331.865,531.971,331.133,532,330.402,532.029"/>
		<path clip-path="url(#SVGID_4_)" fill="#FFFFFF" d="M340.339,530.568c0.314-0.559,0.628-1.119,0.941-1.679
			c0.314-0.558,0.628-1.118,0.941-1.676c0.159-0.3,0.236-0.595,0.228-0.889c-0.009-0.293-0.099-0.584-0.274-0.874
			c-0.377-0.36-0.834-0.439-1.3-0.483c-0.468-0.043-0.943-0.05-1.362-0.267l-0.349,0.221l-0.352,0.219
			c0.017,0.617,0.034,1.236,0.049,1.853c0.018,0.617,0.033,1.236,0.05,1.853c-0.007,0.491,0.109,0.878,0.347,1.167
			C339.496,530.299,339.856,530.484,340.339,530.568"/>
		<path clip-path="url(#SVGID_4_)" fill="#7CA8EB" d="M340.851,531.215c-0.151,0.176-0.251,0.375-0.321,0.581
			c-0.069,0.207-0.112,0.425-0.144,0.639c-0.045,0.257-0.077,0.52-0.137,0.773c-0.06,0.252-0.148,0.497-0.304,0.716
			c-0.246,0.229-0.511,0.421-0.797,0.57c-0.286,0.149-0.594,0.257-0.926,0.318c-0.249-0.011-0.49-0.049-0.725-0.111
			c-0.234-0.062-0.459-0.148-0.674-0.255c-0.019-0.006-0.038-0.016-0.054-0.025c-0.018-0.008-0.036-0.02-0.048-0.031
			c-0.049-0.022-0.099-0.049-0.148-0.077c-0.05-0.026-0.098-0.056-0.144-0.088c-0.004-0.004-0.008-0.011-0.014-0.018
			c-0.006-0.005-0.014-0.012-0.02-0.014l-0.004,0.003l-0.006,0.004l-0.021-0.036l-0.021-0.033c-0.089-0.129-0.177-0.26-0.265-0.387
			c-0.088-0.128-0.175-0.256-0.261-0.381c-0.003-0.005-0.004-0.007-0.006-0.009c-0.002-0.003-0.003-0.006-0.007-0.01l-0.003-0.005
			l-0.003-0.004c-0.021-0.033-0.042-0.066-0.065-0.099c-0.022-0.034-0.046-0.065-0.071-0.097l-0.005-0.003l-0.002-0.004
			c-0.142-0.213-0.281-0.428-0.426-0.639c-0.142-0.213-0.288-0.428-0.437-0.643c0.65-0.479,1.308-0.958,1.965-1.438
			c0.658-0.479,1.314-0.958,1.966-1.437c0.034-0.021,0.063-0.043,0.092-0.065c0.03-0.023,0.06-0.045,0.094-0.065
			c0.127,0.148,0.251,0.297,0.376,0.448c0.123,0.149,0.246,0.3,0.369,0.452c0.116,0.141,0.23,0.279,0.344,0.417
			c0.114,0.139,0.227,0.275,0.339,0.413l0.023,0.025l0.023,0.026l0.234,0.294L340.851,531.215z"/>
		<path clip-path="url(#SVGID_4_)" fill="#394D6B" d="M328.574,587.603c-1.152-0.387-2.121-0.468-2.837-0.11
			c-0.714,0.359-1.178,1.158-1.314,2.538c1.076,0.086,1.856-0.245,2.501-0.77c0.646-0.526,1.158-1.243,1.694-1.926
			c0.001-0.01-0.01,0.058-0.021,0.128C328.584,587.532,328.574,587.603,328.574,587.603"/>
		<path clip-path="url(#SVGID_4_)" fill="#FDFDFD" d="M357.035,530.723c0.131,0.22,0.261,0.44,0.389,0.661
			c0.13,0.219,0.26,0.441,0.392,0.659c-0.199,0.093-0.396,0.19-0.59,0.289c-0.195,0.101-0.389,0.203-0.581,0.304
			c-0.068,0.03-0.134,0.061-0.197,0.093c-0.064,0.03-0.127,0.064-0.193,0.1c-0.053,0.033-0.117,0.052-0.191,0.059
			c-0.074,0.005-0.158-0.006-0.25-0.036c-0.031-0.007-0.068-0.016-0.108-0.032c-0.039-0.012-0.08-0.03-0.12-0.051
			c-0.079-0.038-0.134-0.092-0.167-0.157c-0.032-0.066-0.04-0.149-0.022-0.248c0.007-0.073,0.032-0.155,0.072-0.248
			c0.042-0.093,0.097-0.197,0.168-0.309c0.229-0.179,0.461-0.357,0.694-0.539C356.566,531.086,356.8,530.904,357.035,530.723"/>
		<path clip-path="url(#SVGID_4_)" fill="#E4E4E4" d="M348.335,489.208l-0.001,0.028l-0.003,0.029l-0.047,1.352l-0.043,1.351
			l0.002,0.004l0.002,0.005l-0.007,0.126l-0.008,0.125l0.001,0.012l0.001,0.013l-0.054,1.593l-0.054,1.591l-0.009-0.001
			l-0.007-0.003c-0.039-0.008-0.081-0.015-0.123-0.025c-0.04-0.008-0.081-0.02-0.118-0.037c-0.873-0.201-1.711-0.571-2.497-1.18
			c-0.786-0.606-1.518-1.453-2.181-2.606c0.236-0.169,0.472-0.333,0.708-0.486c0.235-0.153,0.47-0.297,0.702-0.431
			c0.588-0.345,1.162-0.637,1.724-0.87s1.114-0.408,1.657-0.515c0.032-0.015,0.067-0.022,0.102-0.029
			c0.036-0.009,0.073-0.015,0.107-0.022l0.003,0.004l0.002,0.004l0.005-0.003l0.005-0.001c0.022-0.008,0.046-0.012,0.068-0.018
			C348.296,489.215,348.318,489.212,348.335,489.208"/>
		<path clip-path="url(#SVGID_4_)" fill="#394D6B" d="M342.744,533l-0.299,0.204l-0.302,0.204c-0.066,0.298-0.148,0.589-0.24,0.877
			c-0.09,0.289-0.194,0.572-0.305,0.852c-0.001,0.007-0.006,0.017-0.01,0.026c-0.003,0.012-0.005,0.022-0.005,0.037
			c-0.03,0.059-0.058,0.12-0.086,0.185c-0.028,0.063-0.057,0.128-0.088,0.196c-0.02,0.044-0.042,0.089-0.063,0.132
			c-0.024,0.045-0.046,0.089-0.064,0.135c-0.012,0.013-0.024,0.031-0.037,0.048c-0.012,0.016-0.025,0.032-0.04,0.041
			c-0.163,0.223-0.331,0.428-0.51,0.613c-0.177,0.186-0.363,0.355-0.557,0.504c-0.219,0.165-0.447,0.306-0.684,0.418
			c-0.237,0.112-0.487,0.196-0.75,0.247c0,0,0.001,0.001,0,0.003c0,0.002-0.001,0.004-0.01,0.002
			c-0.279,0.069-0.574,0.107-0.884,0.111c-0.308,0.004-0.633-0.024-0.972-0.093c-0.134-0.063-0.261-0.126-0.379-0.194
			c-0.117-0.067-0.225-0.135-0.32-0.211c-0.018-0.007-0.033-0.015-0.046-0.022c-0.013-0.007-0.024-0.012-0.035-0.019
			c-0.388-0.285-0.651-0.626-0.75-1.038c-0.096-0.413-0.023-0.9,0.264-1.477c0.123-0.124,0.253-0.237,0.39-0.335
			c0.135-0.098,0.277-0.182,0.424-0.247l0.005-0.002l0.005-0.003c0.041-0.028,0.088-0.053,0.132-0.073
			c0.044-0.022,0.089-0.041,0.136-0.055c0.18-0.076,0.366-0.133,0.557-0.171c0.192-0.042,0.388-0.064,0.59-0.074
			c0.273-0.144,0.546-0.29,0.821-0.438c0.274-0.148,0.547-0.297,0.822-0.45c0.156-0.08,0.314-0.162,0.469-0.246
			s0.31-0.167,0.465-0.25c0.004-0.004,0.006-0.006,0.01-0.008c0.003-0.001,0.004-0.002,0.01-0.006
			c0.071-0.151,0.143-0.305,0.215-0.458s0.146-0.307,0.224-0.462c0.313,0.25,0.629,0.501,0.946,0.75
			C342.108,532.503,342.426,532.751,342.744,533"/>
		<path clip-path="url(#SVGID_4_)" fill="#7CA8EB" d="M340.413,550.046c0.351-1.463,1.144-2.812,1.737-4.211
			c0.592-1.4,0.984-2.854,0.532-4.524c-0.638-0.502-1.293-0.924-1.995-1.125c-0.703-0.202-1.454-0.183-2.281,0.198
			c-0.522,0.316-0.929,0.721-1.258,1.184c-0.33,0.462-0.583,0.982-0.805,1.528c-0.174,0.553-0.316,1.112-0.426,1.678
			c-0.108,0.566-0.186,1.139-0.225,1.718c0.002,0.577,0.018,1.155,0.11,1.715c0.093,0.561,0.26,1.104,0.57,1.621
			c0.294,0.254,0.608,0.474,0.939,0.661c0.331,0.189,0.682,0.345,1.047,0.47c0.393-0.04,0.759-0.136,1.102-0.288
			C339.803,550.518,340.121,550.309,340.413,550.046"/>
		<path clip-path="url(#SVGID_4_)" fill="#C6D6EE" d="M339.114,541.471c0.594-0.028,1.189-0.054,1.783-0.079
			c0.597-0.028,1.19-0.054,1.785-0.081c-0.01-1.019-0.018-2.037-0.028-3.057c-0.009-1.018-0.018-2.038-0.026-3.055
			c-0.37-0.107-0.722-0.128-1.057-0.064c-0.337,0.065-0.655,0.217-0.958,0.454c-0.389,0.38-0.747,0.79-1.102,1.201
			c-0.353,0.412-0.702,0.83-1.07,1.227c-0.204,0.305-0.358,0.626-0.469,0.961c-0.109,0.335-0.175,0.686-0.197,1.05
			c0.076,0.376,0.225,0.686,0.448,0.926C338.446,541.193,338.742,541.364,339.114,541.471"/>
		<path clip-path="url(#SVGID_4_)" fill="#FCFCFC" d="M341.643,535.889c0.153-0.13,0.313-0.252,0.476-0.367s0.333-0.222,0.508-0.323
			c-0.082-0.298-0.163-0.596-0.244-0.894c-0.079-0.298-0.16-0.597-0.24-0.894c-0.235,0.177-0.468,0.356-0.701,0.533
			c-0.235,0.179-0.468,0.358-0.701,0.537c-0.187,0.338-0.278,0.618-0.272,0.836c0.004,0.218,0.103,0.372,0.3,0.469
			c0.193,0.097,0.363,0.152,0.508,0.168C341.423,535.973,341.545,535.95,341.643,535.889"/>
		<path clip-path="url(#SVGID_4_)" fill="#6082B6" d="M340.413,550.046c-0.323,0.086-0.645,0.171-0.967,0.256
			s-0.646,0.171-0.968,0.256c-0.225,0.258-0.36,0.497-0.405,0.717c-0.044,0.219-0.001,0.416,0.133,0.595
			c0.153,0.202,0.287,0.343,0.399,0.422c0.112,0.08,0.204,0.096,0.275,0.051l0.205-0.106l0.206-0.106l0.092-0.213l0.092-0.211
			c0.156-0.276,0.313-0.553,0.469-0.828C340.1,550.598,340.257,550.322,340.413,550.046"/>
		<path clip-path="url(#SVGID_4_)" fill="#394D6B" d="M337.302,562.257c-0.594,0.146-0.924,0.352-0.988,0.623
			c-0.063,0.27,0.138,0.604,0.602,1.001c0.139-0.252,0.241-0.515,0.305-0.784C337.286,562.825,337.313,562.545,337.302,562.257"/>
		<path clip-path="url(#SVGID_4_)" fill="#7CA8EB" d="M334.719,565.16l-0.272,2.411c-0.091,0.803-0.181,1.607-0.271,2.41
			c0.335,0.167,0.68,0.297,1.035,0.388c0.354,0.095,0.719,0.15,1.092,0.173l0.523,0.741c0.175,0.247,0.349,0.493,0.524,0.741
			c0.346-1.098,0.107-2.036-0.291-2.931c-0.396-0.894-0.954-1.743-1.242-2.669c-0.155-0.235-0.323-0.459-0.506-0.669
			C335.127,565.544,334.93,565.346,334.719,565.16"/>
		<path clip-path="url(#SVGID_4_)" fill="#394D6B" d="M333.792,582.775c-0.297,0.205-0.595,0.409-0.892,0.615
			c-0.296,0.205-0.593,0.411-0.891,0.615c0.157,0.23,0.333,0.441,0.528,0.637c0.192,0.195,0.403,0.374,0.632,0.534l0.402,0.03
			l0.401,0.032l0.204-0.347l0.204-0.348c-0.098-0.297-0.195-0.591-0.294-0.885C333.988,583.365,333.89,583.07,333.792,582.775"/>
		<path clip-path="url(#SVGID_4_)" fill="#FAFAFA" d="M334.381,584.545c-0.21,0.088-0.416,0.186-0.618,0.291
			c-0.201,0.105-0.4,0.219-0.594,0.341c0.204,0.132,0.408,0.266,0.61,0.397c0.204,0.134,0.407,0.266,0.61,0.399
			c-0.001-0.236-0.003-0.476-0.004-0.715C334.384,585.02,334.383,584.782,334.381,584.545"/>
		<path clip-path="url(#SVGID_4_)" fill="#394D6B" d="M332.623,541.437c0.126,0.194,0.25,0.392,0.369,0.593
			c0.118,0.2,0.233,0.403,0.343,0.609c0.177,0.067,0.356,0.138,0.534,0.206c0.179,0.069,0.356,0.137,0.534,0.207
			c0.344-0.214,0.605-0.473,0.775-0.779c0.169-0.309,0.249-0.666,0.232-1.075c-0.119-0.371-0.287-0.71-0.502-1.015
			c-0.213-0.307-0.474-0.579-0.778-0.821c-0.188-0.038-0.375-0.076-0.563-0.112c-0.188-0.037-0.375-0.074-0.563-0.111
			c-0.063,0.382-0.126,0.767-0.191,1.148C332.749,540.669,332.687,541.053,332.623,541.437"/>
		<path clip-path="url(#SVGID_4_)" fill="#394D6B" d="M332.269,537.928c0.132,0.196,0.261,0.395,0.384,0.597
			c0.123,0.2,0.241,0.406,0.354,0.614c-0.001,0,0.044,0.005,0.087,0.011c0.045,0.006,0.088,0.012,0.088,0.012
			c0.417-0.073,0.735-0.233,0.957-0.479c0.223-0.249,0.346-0.583,0.373-1.004c-0.39-0.49-0.779-0.913-1.166-0.999
			c-0.384-0.087-0.766,0.166-1.139,1.025l0.03,0.112L332.269,537.928z"/>
		<path clip-path="url(#SVGID_4_)" fill="#394D6B" d="M316.325,495.93c0.035-0.401,0.071-0.801,0.106-1.199
			c0.036-0.401,0.071-0.8,0.107-1.199c-0.262,0.06-0.503,0.153-0.728,0.28c-0.223,0.129-0.427,0.289-0.611,0.485
			c0.188,0.271,0.375,0.544,0.563,0.817C315.949,495.385,316.138,495.658,316.325,495.93"/>
		<path clip-path="url(#SVGID_4_)" fill="#7CA8EB" d="M332.206,537.705l1.007,0.214c0.335,0.072,0.671,0.143,1.006,0.216
			c0.153,0.056,0.309,0.111,0.462,0.168l0.462,0.169c0.138-0.088,0.276-0.176,0.415-0.265c0.138-0.088,0.276-0.176,0.414-0.264
			c0.021-0.164,0.044-0.325,0.065-0.489c0.02-0.162,0.042-0.325,0.063-0.487c0.103-0.412,0.208-0.823,0.312-1.233
			c0.103-0.412,0.206-0.823,0.309-1.232c0-0.354-0.089-0.63-0.265-0.829c-0.176-0.198-0.438-0.32-0.789-0.363
			c0,0,0.038,0.011,0.076,0.023c0.038,0.012,0.075,0.025,0.075,0.025c-0.75,0.439-1.499,0.876-2.25,1.314
			c-0.75,0.438-1.501,0.875-2.251,1.314c0.147,0.286,0.296,0.572,0.446,0.858C331.91,537.132,332.058,537.418,332.206,537.705"/>
		<path clip-path="url(#SVGID_4_)" fill="#6082B6" d="M337.279,548.999c0.12-0.418,0.242-0.834,0.361-1.252
			c0.121-0.416,0.242-0.834,0.362-1.25c0.05-0.541-0.038-1.039-0.206-1.515c-0.167-0.474-0.417-0.921-0.691-1.364
			c-0.301-0.192-0.614-0.308-0.937-0.348c-0.323-0.04-0.655-0.005-0.996,0.1c-0.648,0.478-0.917,1.079-1.038,1.726
			c-0.123,0.648-0.096,1.342-0.153,2.008c0,0-0.01-0.038-0.02-0.08c-0.009-0.038-0.02-0.078-0.02-0.078
			c0.479,0.727-0.016,2.054-0.043,3.091c-0.025,1.038,0.418,1.784,2.781,1.351c0.486-0.301,0.576-0.702,0.575-1.124
			C337.254,549.838,337.162,549.393,337.279,548.999"/>
		<path clip-path="url(#SVGID_4_)" fill="#394D6B" d="M337.279,548.999c-0.099,0.397-0.199,0.796-0.299,1.192l-0.299,1.195
			c0.367,0.16,0.733,0.318,1.099,0.479c0.368,0.157,0.735,0.316,1.101,0.476c-0.068-0.298-0.135-0.595-0.204-0.892
			c-0.066-0.297-0.134-0.595-0.201-0.892c-0.2-0.26-0.398-0.521-0.597-0.779C337.679,549.518,337.479,549.258,337.279,548.999"/>
		<path clip-path="url(#SVGID_4_)" fill="#C6D6EE" d="M333.983,547.104c0.335-0.567,0.67-1.137,1.005-1.707
			c0.335-0.568,0.672-1.136,1.006-1.706c0.021-0.376-0.042-0.709-0.193-0.99c-0.154-0.281-0.396-0.513-0.735-0.693
			c-0.287,0.105-0.577,0.211-0.865,0.315c-0.289,0.105-0.579,0.209-0.866,0.316c-0.336,0.28-0.672,0.559-1.01,0.838
			c-0.336,0.281-0.673,0.561-1.011,0.842c0.445,0.465,0.89,0.931,1.334,1.395S333.538,546.641,333.983,547.104"/>
		<path clip-path="url(#SVGID_4_)" fill="#394D6B" d="M336.302,570.543c-0.354-0.094-0.709-0.187-1.064-0.28
			c-0.354-0.095-0.709-0.188-1.063-0.281c0.052,0.23,0.103,0.461,0.155,0.69c0.052,0.23,0.104,0.461,0.153,0.691
			c0.305-0.138,0.606-0.273,0.911-0.41C335.696,570.816,336,570.68,336.302,570.543"/>
		<path clip-path="url(#SVGID_4_)" fill="#C6D6EE" d="M335.666,533.311c0.152,0.219,0.317,0.429,0.493,0.628
			c0.176,0.198,0.363,0.386,0.562,0.564c0,0,0.144-0.073,0.29-0.146l0.289-0.143l0.257-0.197c0.127-0.097,0.256-0.195,0.256-0.195
			c-0.358-0.085-0.717-0.17-1.072-0.256C336.381,533.482,336.023,533.396,335.666,533.311"/>
		<path clip-path="url(#SVGID_4_)" fill="#7CA8EB" d="M341.643,535.889c-0.175-0.219-0.335-0.446-0.486-0.681
			c-0.151-0.234-0.29-0.478-0.415-0.727c-0.774,0.414-1.547,0.829-2.321,1.243l-2.322,1.243c0,0,0.017,0.194,0.033,0.389
			c0.015,0.192,0.032,0.386,0.032,0.386l0.086,0.518c0.028,0.172,0.056,0.345,0.085,0.519c0.135,0.108,0.272,0.218,0.408,0.33
			c0.137,0.108,0.273,0.219,0.41,0.329c0.351,0.048,0.698,0.06,1.041,0.032c0.345-0.028,0.686-0.094,1.026-0.198
			c0.403-0.563,0.808-1.128,1.211-1.69C340.834,537.016,341.239,536.452,341.643,535.889"/>
		<path clip-path="url(#SVGID_4_)" fill="#394D6B" d="M335.067,542.007c0.154,0.28,0.311,0.562,0.465,0.843
			c0.154,0.28,0.308,0.561,0.463,0.842c0,0-0.033-0.035-0.068-0.069l-0.068-0.069c0.452,0.054,0.883,0.389,1.326,0.565
			c0.441,0.176,0.895,0.193,1.385-0.392c0.09-0.376,0.182-0.752,0.272-1.129c0.091-0.377,0.18-0.751,0.271-1.127
			c-0.203-0.204-0.404-0.407-0.604-0.614c-0.202-0.205-0.398-0.412-0.595-0.621c-0.172-0.034-0.344-0.067-0.516-0.1l-0.513-0.101
			c-0.572,0.137-1.01,0.386-1.324,0.747c-0.314,0.361-0.501,0.834-0.573,1.408l0.04-0.092L335.067,542.007z"/>
		<path clip-path="url(#SVGID_4_)" fill="#C6D6EE" d="M338.571,543.727c-0.453-0.03-0.904-0.057-1.356-0.086
			c-0.451-0.029-0.903-0.06-1.354-0.088c0.355,0.491,0.712,0.983,1.071,1.472c0.357,0.491,0.713,0.982,1.07,1.473
			c0.096-0.462,0.19-0.923,0.284-1.385C338.38,544.649,338.476,544.188,338.571,543.727"/>
		<path clip-path="url(#SVGID_4_)" fill="#394D6B" d="M339.219,539.271c-0.302-0.055-0.605-0.107-0.906-0.162
			c-0.303-0.053-0.606-0.107-0.908-0.16c-0.159,0.266-0.241,0.493-0.244,0.676c-0.001,0.184,0.075,0.325,0.228,0.424
			c0.161,0.102,0.298,0.169,0.415,0.198c0.116,0.027,0.211,0.019,0.285-0.027c0,0-0.043,0.004-0.086,0.008
			c-0.042,0.005-0.085,0.01-0.086,0.01c0,0,0.194-0.079,0.387-0.157c0.193-0.079,0.388-0.158,0.388-0.158l0.264-0.325
			L339.219,539.271z"/>
		<path clip-path="url(#SVGID_4_)" fill="#7CA8EB" d="M338.088,540.218c-0.12-0.208-0.237-0.418-0.352-0.63
			c-0.115-0.211-0.226-0.425-0.333-0.641c0,0-0.183-0.109-0.363-0.219l-0.364-0.221c-0.275-0.032-0.549-0.068-0.824-0.107
			c-0.271-0.041-0.545-0.083-0.819-0.13l-0.406-0.067c-0.204-0.034-0.406-0.068-0.408-0.068c-0.159,0.184-0.325,0.363-0.499,0.533
			c-0.173,0.172-0.353,0.335-0.539,0.493c0.302,0.505,0.604,1.009,0.905,1.515c0.302,0.505,0.602,1.01,0.903,1.514
			c0.517-0.327,1.034-0.656,1.55-0.985C337.055,540.875,337.572,540.548,338.088,540.218"/>
		<path clip-path="url(#SVGID_4_)" fill="#E3E3E3" d="M335.034,538.271c0.273,0.04,0.547,0.08,0.821,0.119
			c0.273,0.04,0.547,0.08,0.82,0.118c-0.065-0.141-0.141-0.274-0.227-0.403c-0.086-0.127-0.181-0.248-0.285-0.363
			c-0.209,0.044-0.408,0.11-0.597,0.2C335.38,538.03,335.202,538.139,335.034,538.271"/>
		<path clip-path="url(#SVGID_4_)" fill="#394D6B" d="M349.144,464.988c-0.076,4.058-0.167,8.111-0.268,12.165
			c-0.102,4.054-0.215,8.109-0.337,12.168c-0.01,0.43-0.021,0.862-0.033,1.299c-0.011,0.435-0.024,0.872-0.035,1.311
			c-0.002,0.049-0.005,0.098-0.008,0.146c-0.001,0.052-0.003,0.103-0.003,0.155c-0.015,0.528-0.032,1.06-0.05,1.592
			c-0.017,0.534-0.035,1.068-0.052,1.603c-0.071,2.174-0.143,4.351-0.213,6.531c-0.072,2.18-0.143,4.36-0.215,6.542l0.081-6.108
			l0.081-6.109l0.003-0.051l0.002-0.048l0.013-0.352l0.014-0.351l-0.002-0.006l-0.004-0.003l0.004-0.016l0.004-0.015l0.053-1.594
			l0.055-1.592l-0.001-0.012v-0.012l0.007-0.127l0.007-0.125l-0.002-0.005l-0.003-0.006l0.046-1.352l0.044-1.351l0.002-0.028
			l0.001-0.028l0.405-12.111L349.144,464.988z"/>
		<path clip-path="url(#SVGID_4_)" fill="#394D6B" d="M354.417,491.69c0.475,1.951,0.229,3.814-0.173,5.658
			c-0.401,1.845-0.958,3.667-1.107,5.535c-0.083,1.026-0.938,2.333-1.163,3.504c-0.227,1.172,0.18,2.208,2.622,2.692
			c0.022,1.458,0.042,2.913,0.061,4.367c0.019,1.453,0.037,2.906,0.055,4.359c-0.095,0.698-0.192,1.401-0.289,2.103
			c-0.095,0.702-0.193,1.405-0.288,2.103c-0.801,0.158-1.121,0.508-1.205,0.952c-0.085,0.446,0.064,0.986,0.203,1.522
			c0.122,0.163,0.258,0.313,0.405,0.449c0.146,0.136,0.304,0.258,0.473,0.366c-0.246,0.014-0.491,0.034-0.724,0.094
			c-0.233,0.061-0.458,0.161-0.667,0.342c-0.185,0.279-0.292,0.564-0.314,0.855c-0.022,0.292,0.04,0.589,0.185,0.893
			c0.285,0.579,0.571,1.153,0.857,1.728c0.288,0.574,0.577,1.146,0.866,1.723l-0.269,0.305l-0.272,0.305
			c0.147,0.19,0.24,0.394,0.3,0.606c0.059,0.21,0.089,0.431,0.108,0.655c-0.004-0.006-0.007-0.011-0.011-0.015
			c-0.002-0.004-0.008-0.007-0.017-0.008c-0.064-0.156-0.129-0.312-0.195-0.469c-0.066-0.157-0.132-0.313-0.196-0.468
			c-0.323,0.232-0.649,0.465-0.978,0.698c-0.327,0.232-0.657,0.465-0.99,0.694c-0.687,0.092-1.378,0.183-2.068,0.273
			c-0.691,0.091-1.379,0.18-2.063,0.27l-0.027,1.743l-0.026,1.743l-0.191,13.613l-0.193,13.615
			c0.087-7.853,0.161-15.651,0.23-23.412c0.072-7.761,0.141-15.481,0.221-23.176c-0.301,8.183-0.619,16.394-0.936,24.65
			c-0.316,8.256-0.633,16.561-0.931,24.928l0.506-15.136l0.507-15.137l0.061-1.744l0.06-1.744c-0.682-0.12-1.366-0.242-2.05-0.363
			c-0.684-0.122-1.37-0.243-2.05-0.363c-0.318-0.248-0.636-0.497-0.954-0.747c-0.318-0.25-0.634-0.5-0.949-0.751
			c-0.075,0.155-0.149,0.308-0.221,0.462c-0.073,0.154-0.144,0.305-0.217,0.459c-0.004,0.003-0.007,0.004-0.01,0.005
			c-0.001,0.001-0.004,0.003-0.008,0.007c0.032-0.217,0.073-0.433,0.142-0.64c0.07-0.208,0.17-0.404,0.322-0.581l-0.234-0.296
			l-0.235-0.296c0.351-0.583,0.7-1.163,1.047-1.743c0.35-0.58,0.698-1.16,1.048-1.744c0.193-0.322,0.292-0.651,0.296-0.979
			c0.002-0.328-0.087-0.657-0.274-0.983c-0.174-0.178-0.366-0.298-0.571-0.381c-0.205-0.083-0.425-0.131-0.647-0.165
			c0.077-0.069,0.154-0.141,0.227-0.215c0.074-0.075,0.146-0.153,0.213-0.237c0.164-0.526,0.338-1.057,0.275-1.505
			c-0.062-0.447-0.363-0.812-1.151-1.004c-0.063-0.708-0.125-1.412-0.188-2.117c-0.064-0.707-0.126-1.412-0.19-2.117
			c0.084-1.451,0.17-2.903,0.257-4.355c0.088-1.453,0.177-2.904,0.266-4.357c2.461-0.368,2.917-1.384,2.749-2.566
			c-0.171-1.181-0.964-2.525-1.001-3.55c-0.055-1.873-0.524-3.721-0.838-5.584c-0.314-1.861-0.472-3.735,0.098-5.66
			c0.2,0.028,0.399,0.063,0.6,0.101c0.198,0.038,0.396,0.082,0.591,0.126c0.664,1.152,1.395,1.998,2.181,2.606
			c0.786,0.608,1.624,0.979,2.497,1.179c-0.033,2.178-0.064,4.357-0.094,6.536c-0.029,2.18-0.057,4.36-0.089,6.542l0.203-6.085
			l0.203-6.084l-0.079,6.109l-0.081,6.108c0.071-2.181,0.144-4.362,0.215-6.542s0.143-4.357,0.213-6.531
			c0.879-0.159,1.731-0.49,2.545-1.062s1.591-1.385,2.317-2.508c0.196-0.029,0.395-0.062,0.595-0.09
			C354.013,491.737,354.215,491.711,354.417,491.69"/>
		<path clip-path="url(#SVGID_4_)" fill="#6082B6" d="M354.712,517.805c0.423,0.681,0.638,1.376,0.686,2.086
			c0.047,0.71-0.073,1.434-0.32,2.168c-0.144,0.273-0.278,0.549-0.396,0.83c-0.119,0.279-0.223,0.563-0.303,0.849l-0.005,0.002
			l-0.005,0.003c-0.061,0.221-0.109,0.438-0.14,0.658c-0.032,0.218-0.046,0.436-0.048,0.658c-0.002,0.042-0.004,0.08-0.004,0.119
			s0.001,0.078,0.008,0.122c-0.001,0.019,0,0.036,0.001,0.053c0.003,0.016,0.007,0.035,0.014,0.058
			c-0.004,0.002-0.006,0.006-0.006,0.01s0.001,0.005,0.001,0.005c0.009,0.075,0.019,0.153,0.03,0.234
			c0.013,0.08,0.026,0.162,0.045,0.243c-0.002,0.009,0.001,0.014,0.004,0.019c0.002,0.004,0.005,0.008,0.004,0.017
			c0.013,0.072,0.031,0.145,0.055,0.216c0.021,0.073,0.046,0.144,0.071,0.215c0.157,0.62,0.212,1.255,0.266,1.887
			c0.055,0.634,0.109,1.268,0.267,1.888c0.014,0.085,0.036,0.169,0.063,0.25c0.025,0.081,0.054,0.159,0.083,0.236
			c0.013,0.052,0.031,0.1,0.049,0.149c0.019,0.049,0.04,0.096,0.057,0.146c0.023,0.205,0.05,0.408,0.078,0.607
			c0.027,0.199,0.055,0.396,0.08,0.594c-0.036,0.211-0.084,0.417-0.146,0.618c-0.06,0.2-0.134,0.398-0.22,0.593
			c-0.073,0.168-0.155,0.333-0.243,0.495c-0.088,0.161-0.183,0.319-0.286,0.472l-0.029,0.03l-0.026,0.031
			c-0.103,0.092-0.21,0.184-0.32,0.271c-0.108,0.086-0.22,0.17-0.332,0.248c-0.007,0.012-0.016,0.02-0.025,0.025
			c-0.011,0.007-0.025,0.012-0.042,0.017l-0.006,0.004l-0.004,0.002c-0.021,0.02-0.038,0.037-0.056,0.052
			c-0.019,0.015-0.04,0.029-0.072,0.042c-0.012,0.015-0.021,0.025-0.034,0.032c-0.013,0.007-0.025,0.013-0.043,0.017l-0.004,0.004
			l-0.005,0.003c-0.096,0.072-0.194,0.14-0.298,0.201c-0.103,0.062-0.211,0.12-0.323,0.177c-0.01,0.005-0.019,0.012-0.031,0.019
			c-0.011,0.005-0.025,0.009-0.042,0.013l-0.005,0.003l-0.004,0.003c-0.071,0.039-0.142,0.074-0.215,0.108
			c-0.071,0.034-0.143,0.071-0.212,0.109c-0.034,0-0.064,0.01-0.093,0.019c-0.029,0.01-0.056,0.02-0.081,0.022
			c-0.083,0.02-0.163,0.04-0.238,0.059c-0.075,0.022-0.148,0.045-0.221,0.07l-0.004,0.002l-0.003,0.003
			c-0.697,0.205-1.388,0.45-2.08,0.692c-0.69,0.243-1.383,0.481-2.08,0.674l-0.005,0.002l-0.005,0.003l0.027-1.744l0.026-1.742
			c0.683-0.089,1.371-0.179,2.061-0.268c0.691-0.091,1.382-0.182,2.069-0.273c0.332-0.23,0.663-0.462,0.99-0.696
			c0.329-0.232,0.654-0.465,0.978-0.696c0.064,0.153,0.13,0.311,0.196,0.467c0.065,0.156,0.129,0.313,0.194,0.468
			c0.009,0.001,0.014,0.004,0.018,0.008c0.004,0.004,0.007,0.011,0.01,0.015c-0.019-0.224-0.047-0.443-0.107-0.655
			c-0.063-0.212-0.153-0.417-0.3-0.607l0.27-0.304l0.271-0.306c-0.289-0.575-0.579-1.148-0.866-1.723
			c-0.287-0.574-0.574-1.147-0.858-1.728c-0.146-0.304-0.205-0.602-0.183-0.894c0.021-0.291,0.127-0.576,0.314-0.854
			c0.208-0.179,0.435-0.281,0.666-0.341c0.234-0.06,0.478-0.081,0.725-0.095c-0.171-0.108-0.328-0.229-0.473-0.366
			c-0.147-0.135-0.283-0.285-0.405-0.448c-0.138-0.538-0.29-1.078-0.204-1.524c0.084-0.443,0.404-0.794,1.204-0.95
			c0.097-0.699,0.193-1.401,0.29-2.104C354.519,519.205,354.617,518.503,354.712,517.805"/>
		<path clip-path="url(#SVGID_4_)" fill="#394D6B" d="M355.984,467.139c-0.923,1.1-1.605,2.33-1.931,3.66
			c-0.327,1.326-0.297,2.75,0.208,4.239l0.004,0.005l0.002,0.004c0.662,2.65,2.422,5.295,3.259,7.952
			c0.837,2.655,0.747,5.326-2.294,8.026c-0.125,0.107-0.258,0.217-0.394,0.33c-0.137,0.11-0.278,0.223-0.422,0.335
			c-0.202,0.02-0.404,0.046-0.603,0.075c-0.2,0.03-0.398,0.061-0.595,0.092c-0.795,0.026-1.591,0.071-2.384,0.133
			c-0.792,0.063-1.583,0.144-2.375,0.241c-0.039,0.005-0.075,0.008-0.114,0.012c-0.038,0.003-0.075,0.007-0.113,0.011
			c-0.012,0.001-0.024,0.003-0.038,0.005c-0.012,0.001-0.025,0.003-0.037,0.004v-0.021v-0.021l-0.003-0.111l-0.004-0.112
			l0.003-0.027l0.002-0.029l0.02-1.35l0.019-1.349l-0.002-0.005l-0.003-0.004l0.172-12.01l0.172-12.01l0.002-0.103l0.003-0.102
			l0.043-3.171l0.045-3.171c-0.041-0.001-0.08-0.005-0.117-0.007c-0.037-0.003-0.073-0.007-0.109-0.011
			c0.007-0.032,0.014-0.063,0.018-0.092s0.007-0.059,0.004-0.083c0.06-0.266,0.104-0.532,0.133-0.797
			c0.029-0.266,0.043-0.53,0.044-0.793c0.031-0.208,0.059-0.417,0.081-0.626c0.021-0.21,0.036-0.422,0.038-0.631
			c0.004-0.015,0.002-0.032,0.002-0.05c-0.001-0.017-0.004-0.036-0.002-0.056c0.03,0.007,0.063,0.013,0.1,0.019
			c0.035,0.007,0.069,0.016,0.103,0.026l0.002,0.014l0.001,0.013l-0.012,1.464l-0.015,1.466v0.021l-0.001,0.021
			c0.107-0.001,0.218-0.003,0.33-0.007c0.111-0.003,0.226-0.008,0.341-0.016c0.218-0.017,0.436-0.039,0.654-0.07
			c0.216-0.029,0.436-0.066,0.654-0.113c0.095-0.02,0.193-0.041,0.291-0.061c0.099-0.021,0.194-0.042,0.29-0.062
			c0.131-0.029,0.264-0.063,0.396-0.101c0.132-0.037,0.265-0.075,0.393-0.117c0.115-0.032,0.224-0.064,0.334-0.099
			s0.218-0.069,0.329-0.106c0.04-0.011,0.08-0.023,0.119-0.036s0.077-0.028,0.113-0.043c0.188-0.066,0.377-0.132,0.569-0.201
			c0.189-0.072,0.382-0.145,0.572-0.227c0.012,0.007,0.021,0.011,0.029,0.015c0.01,0.005,0.02,0.01,0.031,0.016
			c1.866,1.358,3.129,2.79,3.501,4.391C358.212,463.328,357.69,465.101,355.984,467.139"/>
		<path clip-path="url(#SVGID_4_)" fill="#394D6B" d="M348.925,455.563l-0.018,1.5l-0.016,1.499
			c0.863,0.002,1.754-0.125,2.658-0.347c0.903-0.22,1.821-0.535,2.738-0.905c-0.884-0.342-1.774-0.684-2.669-0.989
			C350.725,456.018,349.827,455.751,348.925,455.563"/>
		<path clip-path="url(#SVGID_4_)" fill="#6082B6" d="M353.245,534.502c0.054,0.074,0.103,0.15,0.147,0.231
			c0.045,0.082,0.085,0.167,0.121,0.257l0.004,0.005L353.52,535c0.005-0.004,0.009-0.002,0.012,0.003
			c0.004,0.005,0.005,0.013,0.007,0.025c0.056,0.113,0.108,0.23,0.153,0.354c0.046,0.123,0.085,0.249,0.118,0.375
			c0.006,0.01,0.009,0.018,0.009,0.026c0.001,0.009,0.001,0.021,0.002,0.034l0.001,0.013l0.002,0.012
			c0.016,0.049,0.027,0.097,0.033,0.146c0.008,0.05,0.015,0.101,0.021,0.155l0.003,0.006l0.002,0.004
			c0.041,0.203,0.083,0.412,0.12,0.622c0.039,0.212,0.073,0.425,0.1,0.636c0.002,0.005,0.003,0.008,0.005,0.009v0.001
			c0.037,0.218,0.072,0.438,0.105,0.66c0.034,0.219,0.066,0.441,0.1,0.662c0.038,0.285,0.075,0.566,0.111,0.852
			c0.035,0.285,0.07,0.572,0.1,0.867c0.02,0.156,0.037,0.318,0.052,0.48c0.013,0.161,0.028,0.325,0.035,0.487
			c0.005,0.07,0.015,0.144,0.025,0.215c0.01,0.072,0.022,0.146,0.033,0.221c0.098,0.862,0.259,1.717,0.453,2.563
			s0.424,1.689,0.663,2.532c0.013,0.053,0.025,0.104,0.038,0.158c0.012,0.051,0.027,0.104,0.039,0.156
			c0.088,0.32,0.176,0.641,0.265,0.96c0.088,0.32,0.176,0.642,0.264,0.962c0.003,0.025,0.007,0.053,0.011,0.08
			c0.004,0.026,0.009,0.056,0.011,0.08l-0.001,0.01l-0.002,0.007l0.004,0.004l0.001,0.006c0.046,0.199,0.079,0.394,0.107,0.587
			c0.028,0.194,0.052,0.386,0.083,0.583c0.004,0.038,0.011,0.076,0.018,0.116c0.009,0.036,0.017,0.076,0.021,0.114
			c0.022,0.175,0.043,0.344,0.061,0.517c0.02,0.171,0.037,0.341,0.052,0.513v0.001c0.001,0.002,0.002,0.004,0.005,0.009
			c0,0.021,0.004,0.038,0.008,0.056c0.004,0.018,0.009,0.035,0.009,0.057l0.003,0.003l0.002,0.006
			c0.012,0.125,0.025,0.253,0.038,0.378c0.013,0.127,0.027,0.253,0.038,0.378c-0.119,1.716,0.575,3.205,1.272,4.691
			c0.696,1.488,1.396,2.975,1.292,4.678c-0.163,0.581-0.295,1.169-0.435,1.755c-0.143,0.585-0.297,1.166-0.506,1.728
			c-0.004,0.004-0.005,0.006-0.004,0.011c0,0.003,0,0.005,0,0.005l-0.054,0.136c-0.018,0.047-0.036,0.092-0.056,0.137
			c-0.025,0.043-0.055,0.088-0.083,0.133c-0.029,0.045-0.057,0.09-0.083,0.134c-0.014,0.021-0.023,0.041-0.037,0.061
			c-0.011,0.019-0.023,0.036-0.039,0.055c0,0-0.001,0.004-0.002,0.007c-0.003,0.005-0.005,0.012-0.012,0.015
			c-0.068,0.104-0.139,0.201-0.211,0.298c-0.072,0.093-0.147,0.186-0.219,0.271c-0.058,0.058-0.115,0.116-0.173,0.174
			c-0.058,0.059-0.115,0.115-0.176,0.167c-0.091,0.092-0.188,0.183-0.29,0.271c-0.104,0.088-0.21,0.173-0.323,0.251
			c-0.009,0.005-0.014,0.01-0.016,0.012c-0.001,0.003-0.001,0.004,0.003,0.011h-0.001c-0.002,0-0.003,0.002-0.009,0.004
			l-0.004,0.005l-0.006,0.003c-0.015,0.016-0.033,0.026-0.051,0.037c-0.02,0.01-0.04,0.02-0.063,0.034
			c-1.619,0.3-3.141,1.096-4.688,1.769c-1.547,0.676-3.12,1.227-4.839,1.031l0.018-1.509l0.02-1.512l0.019-1.53l0.021-1.53
			l0.191-13.615l0.193-13.614l0.027-1.744l0.026-1.742c0.681-0.089,1.371-0.179,2.061-0.268c0.689-0.091,1.381-0.182,2.069-0.273
			c0.164,0.09,0.332,0.181,0.501,0.273c0.167,0.091,0.332,0.185,0.493,0.279c0.108,0.106,0.208,0.218,0.3,0.335
			C353.083,534.245,353.168,534.37,353.245,534.502"/>
		<path clip-path="url(#SVGID_4_)" fill="#1C1C1C" d="M363.223,588.177l-0.032,0.046l-0.032,0.046
			c0.017,0.034,0.034,0.065,0.048,0.097c0.016,0.033,0.033,0.064,0.051,0.099l-0.017-0.137l-0.015-0.135l-0.002-0.009
			L363.223,588.177z"/>
		<path clip-path="url(#SVGID_4_)" fill="#6082B6" d="M346.943,578.07l0.03-1.954l0.031-1.954l-0.002-0.008l-0.001-0.007
			l0.026-1.786l0.023-1.785l0.019-1.513l0.021-1.511c1.423-0.23,2.841-0.46,4.26-0.689c1.419-0.228,2.838-0.458,4.262-0.688
			c0.32-0.052,0.628-0.041,0.92,0.024c0.292,0.065,0.566,0.187,0.826,0.353c0.051,0.035,0.107,0.076,0.162,0.118
			c0.055,0.042,0.11,0.086,0.159,0.136l0.023,0.018l0.024,0.016c0.043,0.065,0.088,0.131,0.129,0.196
			c0.042,0.066,0.083,0.132,0.119,0.199c0.029,0.056,0.057,0.11,0.083,0.165c0.027,0.054,0.05,0.108,0.073,0.166
			c0.041,0.092,0.077,0.183,0.11,0.273c0.033,0.09,0.064,0.183,0.091,0.271c0,0-0.001,0.002-0.001,0.005
			c-0.002,0.004,0,0.008,0.004,0.01c0.122,0.435,0.176,0.874,0.199,1.317c0.025,0.446,0.019,0.895,0.017,1.343
			c-0.004,0.263-0.005,0.522,0,0.779c0.004,0.259,0.016,0.516,0.035,0.772c-0.001,0.033-0.002,0.063-0.001,0.095
			c0.001,0.03,0.004,0.06,0.011,0.091c-0.103,1.385,0.005,2.725,0.276,4.027c0.271,1.304,0.709,2.571,1.265,3.806
			c0.131,0.286,0.292,0.562,0.474,0.824c0.18,0.262,0.381,0.508,0.592,0.739c0.109,0.104,0.22,0.209,0.328,0.314
			c0.11,0.104,0.221,0.21,0.33,0.313c0.181,0.226,0.34,0.468,0.473,0.725c0.133,0.259,0.24,0.53,0.318,0.814
			c0.035,0.435-0.004,0.856-0.077,1.275c-0.072,0.417-0.18,0.833-0.277,1.249c0.139,0.277,0.28,0.555,0.426,0.831
			c0.144,0.276,0.29,0.552,0.437,0.827c-1.602,2.088-2.409,4.117-2.338,6.119c0.074,2,1.028,3.972,2.952,5.945
			c1.418,1.457,2.715,3.041,4.03,4.6c1.314,1.558,2.647,3.094,4.143,4.452c1.375,1.256,2.892,2.35,4.706,3.58
			c1.817,1.231,3.929,2.597,6.496,4.396c-5.453-0.689-9.516-2.434-12.854-4.712c-3.34-2.277-5.955-5.089-8.515-7.907
			c-1.279-1.408-2.553-2.797-3.889-4.112c-1.336-1.316-2.735-2.56-4.264-3.681c-1.647-2.063-2.636-4.469-3.565-6.907
			c-0.927-2.437-1.792-4.908-3.188-7.102l0.033-1.951l0.031-1.955l0.006-0.482L346.943,578.07z"/>
		<path clip-path="url(#SVGID_4_)" fill="#394D6B" d="M372.464,538.998c2.83,2.757,6.053,4.364,9.49,5.339
			c3.438,0.973,7.089,1.309,10.772,1.521c3.544,0.207,7.091,0.377,10.627,0.701c3.535,0.322,7.06,0.793,10.562,1.596
			c-7.122,2.229-14.168,3.318-21.128,2.987c-6.959-0.33-13.829-2.078-20.595-5.522c-2.064,0.494-4.106,0.817-6.078,0.646
			c-1.972-0.17-3.875-0.836-5.663-2.315c-0.421-0.633-0.687-1.297-0.816-1.986c-0.126-0.69-0.118-1.406,0.005-2.146
			c0.142-0.471,0.341-0.907,0.596-1.31c0.254-0.4,0.563-0.767,0.924-1.1c2.088-1.201,4.111-1.918,6.011-1.777
			C369.074,535.77,370.855,536.768,372.464,538.998"/>
		<path clip-path="url(#SVGID_4_)" fill="#C6D6EE" d="M366.236,492.749l-0.004,0.003l-0.005,0.002
			c-0.11,0.165-0.231,0.335-0.365,0.51c-0.131,0.173-0.273,0.352-0.43,0.531c-3.259,1.514-5.094,4.042-6.551,6.837
			c-1.457,2.793-2.536,5.857-4.284,8.447c-2.442-0.483-2.848-1.521-2.624-2.691c0.225-1.171,1.083-2.478,1.165-3.506
			c0.149-1.866,0.706-3.688,1.106-5.534c0.402-1.842,0.647-3.707,0.174-5.657c-0.004-0.165-0.004-0.332-0.004-0.494
			c0-0.165,0-0.329-0.005-0.496l-0.002-0.004l-0.003-0.006c-0.019-2.612-0.042-5.218-0.064-7.824
			c-0.023-2.604-0.047-5.208-0.072-7.819c1.212,0.813,2.424,1.628,3.633,2.445c1.21,0.818,2.419,1.635,3.625,2.451
			c0.061,0.041,0.12,0.082,0.178,0.122c0.059,0.04,0.118,0.08,0.179,0.122c-0.078,2.3,1.908,4.065,3.463,5.942
			C366.902,488.006,368.029,489.997,366.236,492.749"/>
		<path clip-path="url(#SVGID_4_)" fill="#6082B6" d="M372.464,538.998c-1.8,1.314-3.547,0.943-5.289,0.388
			c-1.741-0.556-3.476-1.294-5.252-0.719c-0.07-0.174-0.139-0.349-0.207-0.522c-0.07-0.174-0.138-0.349-0.207-0.523
			c0.015-0.38,0.074-0.747,0.181-1.099c0.104-0.353,0.257-0.692,0.454-1.017c0.408-0.377,0.844-0.732,1.203-1.146
			c0.358-0.415,0.635-0.886,0.72-1.498c4.71-2.313,9.054-2.326,13.534-1.234c4.48,1.09,9.096,3.287,14.353,5.392
			c-4.036,0.631-7.528,0.649-10.702,0.748C378.079,537.865,375.224,538.044,372.464,538.998"/>
		<path clip-path="url(#SVGID_4_)" fill="#C6D6EE" d="M357.025,566.963c-0.237-0.126-0.475-0.256-0.71-0.387
			c-0.238-0.13-0.473-0.264-0.707-0.397c0.074-0.3,0.146-0.604,0.221-0.904c0.073-0.302,0.146-0.604,0.219-0.906
			c0.12-0.304,0.16-0.596,0.11-0.869c-0.049-0.274-0.187-0.53-0.418-0.771c-1.455-1.588-1.955-3.329-2.05-5.13
			c-0.094-1.803,0.216-3.67,0.381-5.513c0.131-0.126,0.263-0.252,0.394-0.38c0.131-0.126,0.263-0.253,0.396-0.383
			c0.248-0.282,0.491-0.568,0.727-0.859c0.237-0.291,0.467-0.587,0.691-0.892c0.571-0.884,1.204-1.657,1.987-2.153
			c0.78-0.497,1.712-0.718,2.884-0.505c2.301,1.681,3.543,3.743,4.188,6.019c0.644,2.277,0.687,4.769,0.593,7.311
			c-0.12,1.2-0.249,2.4-0.572,3.532s-0.837,2.196-1.731,3.131c-0.633,0.902-1.377,1.272-2.18,1.353
			c-0.803,0.083-1.666-0.124-2.537-0.369c-0.332-0.12-0.655-0.258-0.97-0.411C357.627,567.324,357.321,567.155,357.025,566.963"/>
		<path clip-path="url(#SVGID_4_)" fill="#6082B6" d="M361.402,542.153c1.856,0.401,3.785,0.568,5.635,0.986
			c1.85,0.415,3.621,1.082,5.155,2.48c0.846,2.536,2.807,4.188,4.753,5.878c1.948,1.688,3.881,3.413,4.671,6.097
			c-3.347,0.548-5.857-0.612-8.142-2.224c-2.282-1.609-4.336-3.674-6.773-4.924c-1.623,0.045-2.698-0.682-3.622-1.622
			c-0.924-0.938-1.699-2.088-2.721-2.89c-0.185-0.348-0.323-0.705-0.414-1.075c-0.089-0.369-0.13-0.75-0.117-1.145
			c0.146-0.378,0.353-0.694,0.617-0.954C360.708,542.504,361.029,542.301,361.402,542.153"/>
		<path clip-path="url(#SVGID_4_)" fill="#C6D6EE" d="M346.871,582.94l-0.058,4.28l-0.059,4.277l-0.003,0.004l-0.002,0.006
			c0.799,1.17,1.753,2.224,2.889,3.137s2.454,1.689,3.985,2.305c-0.116-3.375-0.236-6.746-1.104-9.826
			c-0.867-3.081-2.48-5.871-5.586-8.089l-0.031,1.955L346.871,582.94z"/>
		<path clip-path="url(#SVGID_4_)" fill="#C6D6EE" d="M362.292,586.61c-0.383-0.316-0.767-0.635-1.151-0.952l-1.148-0.952
			c-0.588,0.176-1.026,0.153-1.313-0.064c-0.288-0.22-0.425-0.636-0.409-1.251c-0.945-1.695-1.825-3.41-2.407-5.206
			c-0.585-1.797-0.873-3.676-0.636-5.702c-0.045-0.313-0.036-0.593,0.029-0.843c0.068-0.247,0.191-0.465,0.372-0.647
			c0.184-0.188,0.335-0.32,0.455-0.396c0.118-0.076,0.204-0.095,0.256-0.058c0.426-0.06,0.844-0.058,1.252,0
			c0.411,0.058,0.813,0.17,1.208,0.335c0.56,0.375,0.998,0.818,1.304,1.341c0.304,0.521,0.477,1.118,0.505,1.8
			c0.492,0.35,0.983,0.697,1.475,1.047l1.475,1.048c0.386,1.808,1.428,2.98,2.669,3.961c1.242,0.982,2.681,1.77,3.864,2.814
			c1.01,0.891,2.428,1.563,3.374,2.519c0.945,0.953,1.42,2.186,0.542,4.193c-1.834-0.962-3.652-1.994-5.566-2.642
			C366.529,586.306,364.516,586.04,362.292,586.61"/>
		<path clip-path="url(#SVGID_4_)" fill="#7CA8EB" d="M374.006,589.596c-0.987-2.834-3.836-4.224-6.32-5.896
			c-2.482-1.673-4.603-3.629-4.129-7.593c3.406,2.746,7.219,5.091,10.63,7.914c3.413,2.824,6.421,6.128,8.22,10.792
			c-2.057-0.199-3.467-1.135-4.708-2.205C376.457,591.535,375.384,590.332,374.006,589.596"/>
		<path clip-path="url(#SVGID_4_)" fill="#7CA8EB" d="M360.609,574.013l-1.244-1.027l-1.243-1.026
			c-0.153-0.32-0.273-0.649-0.361-0.986c-0.087-0.339-0.142-0.685-0.16-1.039c0.043-0.703,0.156-1.399,0.274-2.094
			c0.117-0.693,0.24-1.386,0.308-2.087c1.122-0.825,2.031-0.639,2.885-0.194c0.854,0.443,1.655,1.145,2.56,1.348
			c0.37,2.96,2.309,4.488,4.453,5.892c2.143,1.404,4.49,2.682,5.677,5.137c-2.818,1.121-4.83-0.258-6.775-1.716
			C365.037,574.76,363.159,573.219,360.609,574.013"/>
		<path clip-path="url(#SVGID_4_)" fill="#394D6B" d="M348.961,452.94l-0.017,1.292l-0.018,1.29v0.02v0.02l-0.019,1.5l-0.018,1.498
			c0.864,0.004,1.756-0.124,2.66-0.346c0.902-0.22,1.819-0.535,2.737-0.905c0.017-0.003,0.03-0.008,0.046-0.015
			c0.015-0.007,0.031-0.014,0.046-0.017c-0.419-1.547-1.123-2.689-2.047-3.415C351.405,453.136,350.263,452.826,348.961,452.94"/>
		<path clip-path="url(#SVGID_4_)" fill="#394D6B" d="M379.372,617.614c1.824,2.954,4.5,4.903,7.271,6.741
			c2.77,1.837,5.636,3.562,7.838,6.069c-4.268-1.621-8.1-3.836-11.756-6.567c-3.658-2.732-7.141-5.979-10.715-9.661
			c1.951,0.054,3.344,0.527,4.474,1.178C377.612,616.022,378.478,616.851,379.372,617.614"/>
		<path clip-path="url(#SVGID_4_)" fill="#C6D6EE" d="M362.574,545.099c0.688,0.891,1.375,1.782,2.064,2.674
			c0.688,0.892,1.375,1.784,2.063,2.675c0.348,1.67,1.027,3.366,1.186,5.021c0.158,1.655-0.209,3.27-1.958,4.774
			c-1.461-1.894-2.114-4.177-2.838-6.429c-0.725-2.25-1.522-4.465-3.271-6.221c-0.004-0.194-0.01-0.386-0.014-0.58
			c-0.004-0.191-0.011-0.386-0.014-0.579c0.275-0.614,0.651-1.017,1.119-1.235C361.377,544.983,361.935,544.957,362.574,545.099"/>
		<path clip-path="url(#SVGID_4_)" fill="#6082B6" d="M355.988,525.581c-0.179,0.027-0.361,0.051-0.543,0.076
			c-0.183,0.025-0.365,0.048-0.543,0.073c-0.127-0.04-0.251-0.086-0.369-0.14c-0.118-0.053-0.229-0.113-0.333-0.183
			c-0.035-0.011-0.068-0.026-0.1-0.044c-0.032-0.019-0.062-0.042-0.089-0.064c-0.169-0.107-0.327-0.23-0.473-0.366
			c-0.146-0.137-0.283-0.284-0.405-0.449c-0.139-0.536-0.288-1.077-0.203-1.522c0.083-0.444,0.403-0.794,1.205-0.953
			c0.095-0.698,0.193-1.401,0.288-2.103c0.097-0.702,0.194-1.405,0.289-2.103c2.24,0.961,2.547,2.243,2.298,3.614
			C356.763,522.791,355.961,524.255,355.988,525.581"/>
		<path clip-path="url(#SVGID_4_)" fill="#C6D6EE" d="M364.067,532.863c0.538,0.855,0.518,1.553,0.234,2.177
			c-0.282,0.623-0.826,1.173-1.334,1.733c-0.998,0.242-1.838,0.17-2.536-0.187c-0.698-0.359-1.254-1.004-1.68-1.911
			c-0.057-0.313-0.061-0.603-0.011-0.87c0.05-0.268,0.154-0.511,0.314-0.733c0.164-0.23,0.3-0.395,0.407-0.495
			c0.105-0.099,0.184-0.132,0.23-0.099l2.188,0.191C362.609,532.735,363.338,532.799,364.067,532.863"/>
		<path clip-path="url(#SVGID_4_)" fill="#7CA8EB" d="M355.988,525.581c-0.041,0.617-0.084,1.231-0.13,1.85
			c-0.044,0.616-0.091,1.232-0.135,1.853c-0.013,0.31-0.073,0.575-0.18,0.8c-0.107,0.223-0.261,0.405-0.46,0.545
			c-0.112,0.078-0.244,0.144-0.389,0.194c-0.146,0.053-0.306,0.09-0.48,0.113c-0.289-0.577-0.579-1.149-0.866-1.723
			c-0.286-0.574-0.572-1.149-0.857-1.728c-0.145-0.304-0.207-0.602-0.185-0.893c0.022-0.291,0.129-0.576,0.314-0.855
			c0.209-0.18,0.434-0.28,0.667-0.341c0.233-0.06,0.478-0.08,0.724-0.094c0.028,0.001,0.057,0.004,0.085,0.004
			c0.029,0.002,0.059-0.001,0.088-0.007c0.195-0.001,0.388-0.007,0.578-0.033c0.19-0.025,0.376-0.071,0.552-0.156l0.336,0.237
			L355.988,525.581z"/>
		<path clip-path="url(#SVGID_4_)" fill="#7CA8EB" d="M342.5,525.175c0.186,0.325,0.276,0.655,0.271,0.983
			c-0.003,0.328-0.101,0.655-0.294,0.979c-0.35,0.584-0.698,1.165-1.047,1.744c-0.349,0.579-0.698,1.158-1.047,1.742
			c-0.019,0.033-0.042,0.067-0.064,0.102c-0.022,0.033-0.043,0.066-0.063,0.1c-0.177-0.036-0.338-0.081-0.483-0.142
			c-0.146-0.059-0.275-0.131-0.391-0.219c-0.228-0.159-0.397-0.361-0.506-0.609c-0.108-0.249-0.161-0.542-0.155-0.881
			c-0.002-0.019-0.003-0.035-0.002-0.052c0-0.019,0.002-0.035,0.002-0.056c0.003-0.687,0.005-1.376,0.011-2.067
			c0.004-0.693,0.01-1.384,0.017-2.074l0.03-0.019l0.028-0.018l0.37-0.213l0.368-0.212c0.173,0.092,0.353,0.153,0.538,0.197
			c0.183,0.046,0.373,0.074,0.564,0.1c0.106,0.007,0.212,0.018,0.318,0.028c0.107,0.011,0.212,0.025,0.315,0.04
			c0.224,0.033,0.441,0.082,0.646,0.165C342.132,524.876,342.326,524.997,342.5,525.175"/>
		<path clip-path="url(#SVGID_4_)" fill="#7CA8EB" d="M359.692,532.482c-0.153,0.204-0.305,0.408-0.459,0.613
			c-0.152,0.204-0.306,0.408-0.459,0.612c-0.023,0.036-0.051,0.072-0.08,0.106c-0.029,0.035-0.057,0.069-0.082,0.104l-0.004,0.003
			l-0.006,0.003l-0.001,0.009l-0.001,0.006c-0.093,0.12-0.186,0.239-0.278,0.359c-0.092,0.12-0.182,0.241-0.271,0.366l-0.004,0.007
			l-0.001,0.009c-0.01,0.007-0.017,0.014-0.025,0.023c-0.007,0.012-0.014,0.021-0.02,0.032l-0.02,0.013l-0.019,0.011
			c-0.004,0.005-0.007,0.006-0.01,0.007c-0.003,0.002-0.004,0.003-0.009,0.006c-0.047,0.021-0.095,0.046-0.144,0.069
			c-0.049,0.026-0.098,0.049-0.144,0.072c-0.02,0.012-0.04,0.022-0.06,0.032c-0.021,0.01-0.042,0.019-0.061,0.032
			c-0.224,0.093-0.45,0.165-0.684,0.214c-0.233,0.052-0.474,0.08-0.726,0.084c-0.328-0.083-0.631-0.205-0.91-0.369
			c-0.278-0.162-0.533-0.364-0.764-0.6c-0.143-0.226-0.221-0.472-0.271-0.726c-0.049-0.254-0.072-0.517-0.1-0.774
			c-0.02-0.224-0.049-0.443-0.109-0.654c-0.06-0.213-0.151-0.417-0.298-0.606l0.271-0.306l0.272-0.305
			c0.116-0.134,0.237-0.268,0.357-0.399c0.122-0.132,0.244-0.264,0.363-0.393c0.132-0.144,0.263-0.286,0.394-0.43
			c0.132-0.144,0.263-0.286,0.395-0.43c0.657,0.53,1.319,1.063,1.982,1.596C358.366,531.412,359.03,531.946,359.692,532.482"/>
		<path clip-path="url(#SVGID_4_)" fill="#394D6B" d="M363.254,588.463c1.168-0.334,2.141-0.37,2.839,0.022
			c0.697,0.391,1.12,1.214,1.191,2.598c-1.078,0.035-1.842-0.334-2.462-0.89c-0.62-0.553-1.098-1.295-1.6-2.002
			c0-0.01,0.007,0.058,0.016,0.126C363.246,588.39,363.254,588.463,363.254,588.463"/>
		<path clip-path="url(#SVGID_4_)" fill="#E4E4E4" d="M353.219,491.856c-0.726,1.124-1.503,1.937-2.317,2.507
			c-0.814,0.573-1.666,0.904-2.545,1.063c-0.04,0.011-0.078,0.02-0.117,0.029c-0.04,0.006-0.079,0.013-0.118,0.026l-0.002-0.005
			l-0.003-0.005l-0.006,0.002l-0.004,0.004v-0.021l0.001-0.021l0.024-1.585l0.025-1.588v-0.021v-0.019l-0.003-0.112l-0.004-0.113
			l0.003-0.028l0.002-0.028l0.02-1.35l0.019-1.35l0.005-0.002l0.005-0.003c0.023,0.004,0.043,0.01,0.063,0.015
			c0.019,0.004,0.039,0.008,0.063,0.014c0.031,0.006,0.065,0.015,0.101,0.023c0.037,0.01,0.075,0.02,0.108,0.032
			c0.541,0.143,1.082,0.346,1.632,0.609c0.55,0.261,1.108,0.581,1.679,0.953c0.223,0.139,0.452,0.294,0.681,0.457
			C352.761,491.504,352.991,491.677,353.219,491.856"/>
		<path clip-path="url(#SVGID_4_)" fill="#394D6B" d="M358.778,535.371c0.253,0.591,0.301,1.082,0.186,1.491
			s-0.395,0.737-0.797,1.004l-0.039,0.025l-0.038,0.024c-0.105,0.067-0.22,0.129-0.341,0.187c-0.122,0.058-0.25,0.112-0.379,0.161
			c-0.343,0.054-0.669,0.074-0.979,0.059c-0.312-0.016-0.604-0.066-0.878-0.148c-0.26-0.069-0.505-0.171-0.738-0.298
			c-0.233-0.126-0.452-0.278-0.664-0.453l-0.002-0.002c0-0.001-0.001-0.004-0.003-0.009c-0.191-0.153-0.373-0.328-0.544-0.522
			c-0.17-0.194-0.333-0.408-0.486-0.64l-0.028-0.042l-0.028-0.045c-0.022-0.046-0.042-0.093-0.06-0.141
			c-0.019-0.045-0.033-0.093-0.049-0.138c-0.027-0.064-0.053-0.127-0.079-0.191c-0.025-0.064-0.049-0.13-0.072-0.197
			c-0.005-0.008-0.01-0.021-0.011-0.03c-0.003-0.011-0.002-0.021,0-0.03c-0.107-0.281-0.197-0.571-0.277-0.862
			c-0.078-0.294-0.145-0.591-0.201-0.89l-0.288-0.222l-0.287-0.22c0.333-0.23,0.662-0.462,0.99-0.696
			c0.328-0.232,0.653-0.465,0.977-0.696c0.064,0.153,0.13,0.311,0.196,0.467s0.13,0.313,0.195,0.468
			c0.008,0.001,0.013,0.004,0.017,0.008c0.004,0.005,0.007,0.011,0.011,0.015c0.152,0.092,0.303,0.182,0.453,0.27
			c0.149,0.088,0.298,0.176,0.447,0.263c0.269,0.159,0.536,0.319,0.801,0.481c0.267,0.16,0.533,0.321,0.802,0.48
			c0.207,0.018,0.407,0.053,0.598,0.103s0.374,0.116,0.545,0.196c0.045,0.018,0.089,0.039,0.13,0.06
			c0.045,0.021,0.088,0.043,0.137,0.065l0.003,0.005l0.002,0.004c0.141,0.082,0.275,0.173,0.405,0.279
			C358.535,535.117,358.661,535.237,358.778,535.371"/>
		<path clip-path="url(#SVGID_4_)" fill="#7CA8EB" d="M353.211,550.384c-0.281-1.479-1.008-2.862-1.535-4.288
			c-0.525-1.428-0.847-2.896-0.317-4.545c0.66-0.471,1.335-0.86,2.047-1.03c0.71-0.167,1.461-0.112,2.271,0.307
			c0.505,0.341,0.892,0.765,1.199,1.241c0.308,0.479,0.538,1.01,0.73,1.566c0.148,0.561,0.264,1.126,0.347,1.695
			c0.083,0.57,0.131,1.146,0.144,1.727c-0.03,0.577-0.074,1.152-0.193,1.708c-0.118,0.555-0.311,1.092-0.646,1.592
			c-0.306,0.24-0.628,0.445-0.969,0.617c-0.341,0.171-0.696,0.312-1.069,0.419c-0.39-0.06-0.751-0.173-1.086-0.34
			C353.798,550.884,353.492,550.662,353.211,550.384"/>
		<path clip-path="url(#SVGID_4_)" fill="#C6D6EE" d="M354.917,541.879c-0.592-0.055-1.186-0.109-1.778-0.164
			c-0.593-0.056-1.186-0.11-1.779-0.164c0.059-1.017,0.116-2.034,0.173-3.051s0.115-2.034,0.173-3.051
			c0.373-0.089,0.726-0.094,1.059-0.015c0.333,0.081,0.644,0.248,0.934,0.499c0.371,0.397,0.709,0.823,1.043,1.251
			c0.334,0.428,0.664,0.862,1.013,1.277c0.187,0.313,0.327,0.641,0.421,0.981c0.094,0.341,0.141,0.694,0.146,1.058
			c-0.093,0.374-0.256,0.675-0.491,0.905C355.596,541.635,355.292,541.793,354.917,541.879"/>
		<path clip-path="url(#SVGID_4_)" fill="#FCFCFC" d="M352.656,536.184c-0.146-0.137-0.299-0.266-0.458-0.388
			s-0.323-0.238-0.492-0.346c0.096-0.295,0.19-0.589,0.284-0.882c0.095-0.295,0.19-0.588,0.284-0.883
			c0.224,0.188,0.449,0.378,0.674,0.567c0.225,0.189,0.449,0.379,0.674,0.567c0.17,0.348,0.249,0.632,0.233,0.848
			c-0.013,0.218-0.123,0.371-0.322,0.457c-0.197,0.085-0.371,0.134-0.515,0.144C352.871,536.277,352.75,536.251,352.656,536.184"/>
		<path clip-path="url(#SVGID_4_)" fill="#6082B6" d="M353.211,550.384c0.318,0.101,0.637,0.203,0.956,0.301
			c0.318,0.101,0.637,0.202,0.954,0.303c0.213,0.269,0.336,0.513,0.37,0.734c0.036,0.221-0.019,0.415-0.161,0.588
			c-0.164,0.197-0.301,0.329-0.417,0.403c-0.116,0.073-0.209,0.086-0.278,0.037l-0.201-0.115l-0.198-0.117l-0.083-0.216
			l-0.082-0.216c-0.142-0.284-0.286-0.569-0.428-0.852L353.211,550.384z"/>
		<path clip-path="url(#SVGID_4_)" fill="#394D6B" d="M355.739,562.729c0.588,0.173,0.906,0.396,0.957,0.668
			c0.052,0.275-0.166,0.599-0.647,0.972c-0.127-0.258-0.217-0.523-0.269-0.797C355.728,563.297,355.714,563.016,355.739,562.729"/>
		<path clip-path="url(#SVGID_4_)" fill="#7CA8EB" d="M358.182,565.753c0.053,0.807,0.105,1.613,0.156,2.42
			c0.054,0.808,0.105,1.613,0.158,2.421c-0.344,0.15-0.694,0.265-1.053,0.34c-0.359,0.076-0.725,0.114-1.099,0.12
			c-0.186,0.237-0.373,0.477-0.558,0.716c-0.186,0.237-0.372,0.476-0.558,0.713c-0.294-1.113-0.011-2.038,0.429-2.911
			c0.439-0.876,1.036-1.697,1.367-2.608c0.166-0.228,0.345-0.442,0.538-0.644C357.754,566.116,357.961,565.928,358.182,565.753"/>
		<path clip-path="url(#SVGID_4_)" fill="#394D6B" d="M358.27,583.391c0.288,0.22,0.574,0.438,0.861,0.658
			c0.286,0.219,0.574,0.438,0.86,0.657c-0.169,0.222-0.354,0.426-0.557,0.61c-0.203,0.186-0.42,0.354-0.657,0.502l-0.403,0.012
			l-0.402,0.014l-0.188-0.356l-0.187-0.358c0.112-0.288,0.224-0.578,0.336-0.868C358.046,583.971,358.158,583.682,358.27,583.391"/>
		<path clip-path="url(#SVGID_4_)" fill="#FAFAFA" d="M357.598,585.129c0.206,0.1,0.408,0.206,0.604,0.319
			c0.197,0.118,0.388,0.239,0.577,0.37c-0.21,0.122-0.419,0.247-0.628,0.37c-0.209,0.122-0.418,0.246-0.628,0.368
			c0.013-0.235,0.025-0.476,0.038-0.713C357.572,585.605,357.586,585.368,357.598,585.129"/>
		<path clip-path="url(#SVGID_4_)" fill="#394D6B" d="M361.402,542.153c-0.136,0.189-0.268,0.382-0.396,0.575
			c-0.129,0.195-0.252,0.393-0.373,0.592c-0.181,0.062-0.362,0.121-0.543,0.182c-0.181,0.06-0.362,0.121-0.543,0.181
			c-0.333-0.229-0.582-0.499-0.736-0.816c-0.156-0.315-0.219-0.676-0.181-1.084c0.135-0.365,0.32-0.694,0.549-0.99
			c0.228-0.294,0.501-0.555,0.817-0.784c0.188-0.028,0.379-0.056,0.566-0.083l0.567-0.084c0.044,0.385,0.091,0.771,0.135,1.156
			C361.311,541.383,361.357,541.769,361.402,542.153"/>
		<path clip-path="url(#SVGID_4_)" fill="#394D6B" d="M361.923,538.666c-0.142,0.19-0.279,0.382-0.412,0.578
			c-0.133,0.196-0.26,0.395-0.382,0.596c0,0-0.045,0.003-0.088,0.007c-0.044,0.004-0.089,0.009-0.089,0.009
			c-0.412-0.094-0.722-0.269-0.932-0.525c-0.209-0.258-0.318-0.598-0.325-1.021c0.414-0.471,0.823-0.875,1.21-0.943
			c0.39-0.068,0.758,0.201,1.092,1.079l-0.038,0.109L361.923,538.666z"/>
		<path clip-path="url(#SVGID_4_)" fill="#7CA8EB" d="M361.997,538.447c-0.338,0.056-0.677,0.112-1.017,0.168
			c-0.337,0.054-0.676,0.11-1.015,0.166c-0.156,0.048-0.313,0.098-0.471,0.147c-0.155,0.048-0.313,0.099-0.469,0.148
			c-0.134-0.096-0.269-0.19-0.402-0.285c-0.132-0.095-0.267-0.19-0.401-0.285c-0.014-0.164-0.028-0.326-0.04-0.49
			c-0.015-0.164-0.027-0.327-0.041-0.49c-0.084-0.416-0.167-0.831-0.251-1.247s-0.169-0.83-0.253-1.246
			c0.019-0.354,0.12-0.625,0.305-0.814c0.186-0.19,0.453-0.299,0.806-0.325l-0.075,0.019c-0.04,0.012-0.077,0.022-0.077,0.022
			c0.727,0.472,1.456,0.946,2.185,1.419c0.729,0.473,1.458,0.946,2.188,1.418c-0.162,0.28-0.324,0.559-0.486,0.838L361.997,538.447z
			"/>
		<path clip-path="url(#SVGID_4_)" fill="#6082B6" d="M356.392,549.486c-0.1-0.421-0.203-0.845-0.301-1.267
			c-0.102-0.421-0.201-0.844-0.303-1.265c-0.024-0.545,0.086-1.039,0.278-1.504c0.189-0.466,0.459-0.901,0.754-1.329
			c0.311-0.18,0.629-0.279,0.953-0.305c0.325-0.024,0.654,0.026,0.989,0.147c0.625,0.509,0.865,1.121,0.957,1.773
			c0.091,0.651,0.032,1.344,0.056,2.014l0.024-0.079l0.023-0.079c-0.514,0.702-0.081,2.053-0.104,3.09
			c-0.023,1.038-0.503,1.764-2.842,1.217c-0.471-0.324-0.542-0.727-0.521-1.15C356.376,550.327,356.491,549.887,356.392,549.486"/>
		<path clip-path="url(#SVGID_4_)" fill="#394D6B" d="M356.392,549.486c0.082,0.402,0.161,0.805,0.242,1.208
			s0.162,0.805,0.242,1.206c-0.373,0.143-0.747,0.284-1.122,0.425c-0.374,0.141-0.747,0.282-1.121,0.425
			c0.082-0.295,0.163-0.588,0.246-0.881c0.083-0.295,0.163-0.588,0.244-0.882c0.212-0.25,0.422-0.501,0.634-0.751
			C355.968,549.987,356.18,549.737,356.392,549.486"/>
		<path clip-path="url(#SVGID_4_)" fill="#C6D6EE" d="M359.774,547.752c-0.309-0.585-0.615-1.169-0.925-1.753
			c-0.307-0.584-0.615-1.169-0.922-1.753c-0.003-0.378,0.075-0.706,0.242-0.98c0.165-0.274,0.417-0.495,0.765-0.659
			c0.283,0.12,0.567,0.239,0.85,0.358c0.284,0.119,0.567,0.236,0.851,0.355c0.323,0.296,0.645,0.592,0.968,0.887
			c0.322,0.296,0.645,0.592,0.969,0.889c-0.465,0.443-0.932,0.886-1.398,1.329C360.707,546.867,360.241,547.309,359.774,547.752"/>
		<path clip-path="url(#SVGID_4_)" fill="#394D6B" d="M356.344,571.054c0.359-0.076,0.718-0.151,1.077-0.23l1.077-0.229
			c-0.063,0.226-0.126,0.454-0.189,0.682c-0.061,0.229-0.124,0.455-0.187,0.684c-0.295-0.15-0.592-0.303-0.888-0.453
			C356.937,571.355,356.64,571.204,356.344,571.054"/>
		<path clip-path="url(#SVGID_4_)" fill="#FAFAFA" d="M316.599,495.889c0.267,0.077,0.505,0.191,0.716,0.346
			c0.209,0.153,0.391,0.346,0.542,0.578c-0.241,0.103-0.484,0.208-0.726,0.312c-0.242,0.103-0.483,0.208-0.726,0.311
			c0.033-0.258,0.066-0.515,0.098-0.773C316.535,496.403,316.567,496.147,316.599,495.889"/>
		<path clip-path="url(#SVGID_4_)" fill="#394D6B" d="M392.132,484.455c5.243-0.375,10.484-0.8,15.726-1.188
			c5.243-0.389,10.486-0.739,15.734-0.964c2.218-0.095,4.522-0.128,6.817,0.541c2.294,0.667,4.58,2.037,6.756,4.75
			c-7.519-0.903-14.643-1.272-21.542-0.982c-6.899,0.29-13.574,1.239-20.195,2.97c-0.906,1.023-1.778,2.098-2.804,2.95
			c-1.027,0.85-2.21,1.477-3.741,1.607c-1.013,0.181-1.943,0.123-2.792-0.169c-0.851-0.292-1.62-0.816-2.313-1.572
			c-0.921-0.927-1.583-1.918-1.89-2.999c-0.309-1.081-0.261-2.25,0.238-3.535c0.904-1.468,2.071-2.098,3.36-2.336
			c1.29-0.237,2.701-0.086,4.095,0.01c0.426,0.146,0.853,0.295,1.276,0.45C391.285,484.139,391.709,484.296,392.132,484.455"/>
		<path clip-path="url(#SVGID_4_)" fill="#394D6B" d="M385.872,490.527c0.629,0.331,1.259,0.662,1.889,0.993
			c0.63,0.332,1.258,0.662,1.889,0.991c0.288,0.292,0.476,0.609,0.565,0.954c0.09,0.342,0.08,0.71-0.029,1.106
			c1.067,3.512,3.138,5.627,5.683,7.066c2.544,1.439,5.564,2.203,8.527,3.005c1.896,0.515,3.816,0.94,5.707,1.462
			c1.89,0.522,3.751,1.141,5.528,2.043c-5.873,0.838-11.354,0.442-16.435-1.208c-5.082-1.649-9.764-4.55-14.039-8.72
			c-0.999,0.429-1.877,0.478-2.659,0.211c-0.782-0.266-1.465-0.848-2.069-1.682c-0.226-0.409-0.386-0.831-0.488-1.268
			c-0.099-0.436-0.138-0.886-0.116-1.351c0.049-0.461,0.155-0.901,0.318-1.319c0.163-0.417,0.382-0.811,0.659-1.184
			c0.71-0.8,1.527-1.11,2.392-1.204C384.061,490.332,384.971,490.457,385.872,490.527"/>
		<path clip-path="url(#SVGID_4_)" fill="#6082B6" d="M366.261,492.809c-0.997-2.124-2.967-3.846-4.375-5.799
			c-1.411-1.955-2.257-4.142-1.008-7.197c1.759,0.359,3.521,0.718,5.28,1.076c1.761,0.358,3.521,0.716,5.28,1.074
			c3.784-0.822,5.894-1.008,7.106,0.251c1.213,1.258,1.531,3.962,1.73,8.919c-0.47,1.177-1.354,1.789-2.328,2.274
			c-0.975,0.484-2.042,0.843-2.881,1.516c-1.468-0.352-2.935-0.706-4.403-1.058C369.196,493.512,367.729,493.16,366.261,492.809"/>
		<path clip-path="url(#SVGID_4_)" fill="#394D6B" d="M381.983,480.553c-0.028,1.006,0.156,1.925,0.516,2.776
			c0.357,0.851,0.888,1.631,1.551,2.358c-0.311,1.035-0.292,1.948,0.021,2.749c0.313,0.802,0.924,1.493,1.795,2.088
			c-0.641,0.373-1.284,0.743-1.926,1.114c-0.643,0.372-1.286,0.742-1.928,1.112c-0.342,0.113-0.683,0.167-1.023,0.167
			c-0.341,0-0.683-0.055-1.023-0.16c-0.299-0.21-0.534-0.459-0.707-0.745c-0.173-0.288-0.286-0.61-0.343-0.967
			c-1.137-0.61-2.935-0.656-4.08-1.237c-1.145-0.581-1.635-1.695-0.154-4.439c0.812-1.503,0.35-2.138-0.489-2.504
			c-0.839-0.366-2.056-0.466-2.753-0.904c-0.2-0.186-0.393-0.383-0.576-0.587c-0.184-0.205-0.356-0.417-0.52-0.638
			c-0.025-0.44,0.047-0.826,0.225-1.159c0.177-0.331,0.458-0.604,0.854-0.82c0.406-0.117,0.806-0.25,1.2-0.396
			c0.396-0.147,0.784-0.308,1.17-0.481c1.85-1.036,3.51-1.491,4.903-1.127C380.086,477.12,381.207,478.307,381.983,480.553"/>
		<path clip-path="url(#SVGID_4_)" fill="#6082B6" d="M390.187,494.572c-0.088-0.344-0.177-0.686-0.267-1.029
			c-0.089-0.343-0.178-0.686-0.268-1.03c0.767-0.874,1.604-1.609,2.553-2.126c0.95-0.515,2.011-0.811,3.224-0.806
			c1.449,2.985,3.969,4.177,6.757,5.128c2.787,0.952,5.841,1.666,8.352,3.697c-4.058,1.419-7.573,1.052-10.86,0.036
			C396.391,497.427,393.332,495.759,390.187,494.572"/>
		<path clip-path="url(#SVGID_4_)" fill="#C6D6EE" d="M380.583,495.897c0.762,0.387,1.525,0.775,2.288,1.162
			c0.762,0.386,1.524,0.773,2.287,1.161c-0.2,2.335,0.776,4.506,1.613,6.807c0.838,2.3,1.538,4.733,0.785,7.598
			c-3.153-2.473-5.448-5.116-6.949-8.034c-1.502-2.919-2.205-6.11-2.176-9.681c0.522-0.191,0.962-0.205,1.321-0.04
			C380.112,495.034,380.388,495.376,380.583,495.897"/>
		<path clip-path="url(#SVGID_4_)" fill="#394D6B" d="M381.979,479.702c0.455-0.549,0.908-1.097,1.362-1.643
			c0.454-0.547,0.907-1.095,1.362-1.644c0.153-0.378,0.205-0.746,0.156-1.097c-0.05-0.352-0.201-0.688-0.454-1.01
			c-0.367-3.652,0.729-6.401,2.523-8.709c1.796-2.308,4.288-4.174,6.715-6.058c1.551-1.203,3.161-2.336,4.704-3.545
			c1.544-1.209,3.023-2.499,4.316-4.015c-5.743,1.487-10.648,3.963-14.703,7.443c-4.056,3.479-7.26,7.959-9.6,13.452
			c-1.087-0.011-1.917,0.282-2.536,0.83c-0.618,0.546-1.025,1.346-1.262,2.349c-0.051,0.464-0.037,0.915,0.039,1.355
			c0.076,0.443,0.212,0.873,0.414,1.293c0.222,0.408,0.488,0.772,0.8,1.093c0.311,0.323,0.666,0.604,1.065,0.839
			c0.964,0.465,1.837,0.437,2.669,0.192C380.383,480.581,381.176,480.114,381.979,479.702"/>
		<path clip-path="url(#SVGID_4_)" fill="#C6D6EE" d="M375.031,476.781c0.554-0.65,1.109-1.301,1.664-1.952
			c0.555-0.65,1.109-1.302,1.665-1.952c-1.085-2.079-1.02-4.456-1.132-6.902s-0.403-4.961-2.202-7.315
			c-1.958,3.495-3.058,6.817-3.32,10.09c-0.261,3.27,0.316,6.489,1.718,9.771c0.556-0.024,0.968-0.182,1.235-0.47
			C374.928,477.761,375.052,477.337,375.031,476.781"/>
		<path clip-path="url(#SVGID_4_)" fill="#394D6B" d="M380.583,495.897c-0.358-0.165-0.717-0.328-1.076-0.493
			c-0.359-0.165-0.718-0.33-1.077-0.495c-0.56,0.003-1.121,0.004-1.683,0.007c-0.559,0.001-1.121,0.003-1.681,0.005
			c0.1-1.184,0.675-1.898,1.417-2.442c0.745-0.544,1.658-0.921,2.433-1.435c0.281,0.177,0.564,0.354,0.846,0.532
			c0.282,0.178,0.564,0.355,0.848,0.534c0.148,0.38,0.257,0.768,0.328,1.164c0.07,0.395,0.103,0.797,0.1,1.206
			c-0.109,0.225-0.201,0.457-0.279,0.693C380.684,495.408,380.625,495.65,380.583,495.897"/>
		<path clip-path="url(#SVGID_4_)" fill="#394D6B" d="M381.038,494.479c-0.071-0.395-0.143-0.79-0.214-1.186
			c-0.073-0.395-0.143-0.79-0.215-1.185c0.267,0.038,0.517,0.108,0.75,0.214c0.233,0.107,0.452,0.25,0.654,0.428
			c-0.163,0.288-0.326,0.575-0.487,0.864C381.362,493.903,381.2,494.191,381.038,494.479"/>
		<path clip-path="url(#SVGID_4_)" fill="#FAFAFA" d="M380.761,494.462c-0.26,0.102-0.486,0.236-0.681,0.41
			c-0.195,0.171-0.358,0.379-0.489,0.624l0.751,0.246c0.25,0.082,0.5,0.164,0.75,0.244c-0.055-0.253-0.11-0.506-0.165-0.762
			C380.872,494.972,380.817,494.717,380.761,494.462"/>
		<path clip-path="url(#SVGID_4_)" fill="#C6D6EE" d="M358.748,533.894c-0.163,0.211-0.335,0.413-0.521,0.603
			s-0.381,0.37-0.589,0.536c0,0-0.142-0.078-0.283-0.156c-0.141-0.08-0.282-0.158-0.282-0.158s-0.123-0.104-0.246-0.208
			c-0.124-0.103-0.248-0.208-0.248-0.208c0.362-0.068,0.723-0.137,1.084-0.205C358.025,534.03,358.388,533.962,358.748,533.894"/>
		<path clip-path="url(#SVGID_4_)" fill="#7CA8EB" d="M352.656,536.184c0.185-0.211,0.356-0.431,0.518-0.658
			c0.16-0.227,0.31-0.462,0.448-0.707c0.753,0.452,1.507,0.902,2.261,1.354c0.752,0.451,1.505,0.902,2.26,1.351
			c0,0-0.025,0.195-0.051,0.386l-0.052,0.387c-0.036,0.17-0.072,0.34-0.11,0.512c-0.036,0.17-0.072,0.342-0.108,0.513
			c-0.142,0.103-0.282,0.207-0.425,0.31c-0.141,0.103-0.283,0.207-0.423,0.31c-0.353,0.032-0.701,0.026-1.043-0.017
			c-0.342-0.045-0.68-0.127-1.013-0.248c-0.376-0.582-0.753-1.165-1.13-1.747C353.41,537.348,353.033,536.766,352.656,536.184"/>
		<path clip-path="url(#SVGID_4_)" fill="#394D6B" d="M358.934,542.606c-0.169,0.274-0.337,0.548-0.504,0.82
			c-0.168,0.273-0.336,0.547-0.505,0.819c0.001,0,0.037-0.033,0.073-0.065c0.034-0.033,0.07-0.065,0.07-0.065
			c-0.452,0.03-0.9,0.346-1.35,0.501c-0.449,0.155-0.903,0.151-1.365-0.455c-0.073-0.381-0.146-0.762-0.218-1.142
			c-0.072-0.38-0.145-0.76-0.217-1.141c0.212-0.192,0.422-0.387,0.633-0.583c0.209-0.195,0.417-0.394,0.624-0.592
			c0.171-0.024,0.346-0.05,0.519-0.075c0.173-0.024,0.344-0.05,0.518-0.075c0.563,0.161,0.991,0.433,1.287,0.809
			c0.296,0.375,0.462,0.856,0.504,1.435l-0.033-0.096L358.934,542.606z"/>
		<path clip-path="url(#SVGID_4_)" fill="#C6D6EE" d="M355.353,544.161c0.453-0.009,0.905-0.016,1.357-0.024
			c0.452-0.005,0.906-0.015,1.358-0.021c-0.379,0.473-0.761,0.948-1.141,1.42c-0.38,0.474-0.759,0.946-1.139,1.42
			c-0.072-0.468-0.145-0.932-0.217-1.398C355.498,545.092,355.425,544.625,355.353,544.161"/>
		<path clip-path="url(#SVGID_4_)" fill="#394D6B" d="M354.917,539.677c0.305-0.039,0.61-0.08,0.913-0.118
			c0.306-0.039,0.61-0.078,0.915-0.118c0.147,0.275,0.216,0.504,0.209,0.687c-0.005,0.183-0.088,0.322-0.247,0.413
			c-0.165,0.096-0.306,0.155-0.423,0.178c-0.117,0.023-0.212,0.009-0.283-0.04l0.085,0.012c0.043,0.005,0.085,0.011,0.086,0.012
			c0,0-0.188-0.087-0.379-0.176c-0.188-0.087-0.38-0.176-0.38-0.176l-0.247-0.336L354.917,539.677z"/>
		<path clip-path="url(#SVGID_4_)" fill="#7CA8EB" d="M356.001,540.678c0.129-0.202,0.258-0.408,0.381-0.612
			c0.125-0.207,0.246-0.415,0.363-0.625l0.373-0.202c0.188-0.101,0.374-0.203,0.374-0.203c0.277-0.018,0.551-0.042,0.828-0.068
			c0.274-0.027,0.55-0.057,0.825-0.09c0,0,0.204-0.024,0.409-0.048c0.206-0.025,0.411-0.048,0.411-0.048
			c0.15,0.191,0.309,0.378,0.473,0.557c0.165,0.179,0.337,0.352,0.516,0.519l-0.976,1.471c-0.326,0.489-0.651,0.979-0.975,1.47
			c-0.5-0.354-1-0.707-1.5-1.06C357,541.384,356.501,541.031,356.001,540.678"/>
		<path clip-path="url(#SVGID_4_)" fill="#E3E3E3" d="M359.144,538.878c-0.275,0.026-0.552,0.053-0.825,0.08l-0.828,0.08
			c0.073-0.137,0.156-0.269,0.248-0.393c0.091-0.123,0.191-0.238,0.302-0.349c0.207,0.055,0.402,0.129,0.584,0.228
			C358.81,538.62,358.983,538.738,359.144,538.878"/>
		<path clip-path="url(#SVGID_4_)" fill="#394D6B" d="M346.948,578.069l0.042-3.164l0.043-3.164
			c-0.005,0.407-0.013,0.811-0.018,1.215c-0.005,0.402-0.01,0.806-0.01,1.208c-0.011,0.651-0.022,1.303-0.032,1.954
			C346.963,576.77,346.954,577.42,346.948,578.069"/>
		<polygon clip-path="url(#SVGID_4_)" fill="#394D6B" points="347.564,533.781 347.542,535.521 347.521,537.261 347.516,537.264 
			347.511,537.268 347.538,535.523 		"/>
	</g>
</g>
<g id="Text_-_Regular__x28_Lenos_x29_">
	<g>
		<path fill="#394D6B" d="M791.666,466.948v129.017c0,46.076-32.952,66.741-77.354,67.301c-17.593,0-36.304-5.587-43.006-8.099
			l-12.008-20.945l3.072-2.233c12.846,3.63,26.25,8.378,44.402,8.378c35.465,0,53.059-11.729,54.176-42.168v-25.133
			c-6.982,17.872-25.133,30.998-50.545,31.276c-22.062,0.279-42.167-7.819-47.752-8.937c-11.171-20.105-18.711-43.005-18.711-60.598
			c0-41.609,27.926-68.976,65.067-68.976c23.178,0,39.934,12.846,54.176,36.023h1.955l-0.28-28.763L791.666,466.948z
			 M719.06,487.333c-25.691,0-44.123,18.152-44.123,47.474c0,10.891,4.189,29.601,8.657,43.004
			c6.981,2.235,18.99,6.703,34.348,6.703c25.134,0,44.123-18.151,44.123-49.708C762.065,513.304,741.4,487.333,719.06,487.333z"/>
		<path fill="#394D6B" d="M828.812,406.349l29.88-6.423v213.073h-29.88V406.349z"/>
		<path fill="#394D6B" d="M1014.212,519.169v94.108h-15.639c-8.098,0-11.728-6.143-12.006-13.124v-12.008h-1.396l-5.304,10.053
			c-7.814,13.962-33.495,17.593-47.175,16.755c-18.71-1.396-34.069-7.818-34.069-7.818s-9.216-18.711-9.216-33.231
			c0-30.998,31.277-44.123,70.084-44.123h26.518v-8.936c0-22.341-11.165-32.673-32.1-34.349
			c-18.704-0.559-37.135,4.468-41.882,6.703l-16.197-13.405l1.117-3.63c11.729-6.422,39.375-12.008,61.429-11.729
			C992.988,464.435,1014.212,483.424,1014.212,519.169z M986.01,545.977h-26.238c-23.728,0-41.32,6.145-41.32,25.972
			c0,7.54,3.909,17.872,3.909,17.872c3.072,1.117,10.612,4.188,17.593,4.748c18.423,2.233,35.17-2.514,46.056-17.872V545.977z"/>
		<path fill="#6082B6" d="M1178.976,466.948v146.051h-17.595c-6.143,0-11.17-5.307-11.17-11.449l-0.279-20.386h-1.115
			l-15.082,21.502c-12.007,8.099-28.204,13.125-43.285,12.287c-13.962-0.837-31.833-8.378-35.184-9.493
			c-3.911-10.055-7.82-24.296-8.099-40.214v-91.038l29.599-7.26v91.315c0,15.64,5.027,27.926,5.027,27.926
			c2.793,1.117,15.081,6.702,24.574,6.702c16.477,0,23.459-5.025,42.728-23.177l0.279-95.506L1178.976,466.948z"/>
		<path fill="#394D6B" d="M1292.074,592.613c19.269,0,33.231-5.585,45.52-11.449l2.793,1.675l0.837,18.99
			c-13.126,7.26-30.16,13.962-56.408,13.962c-22.341,0-50.826-6.981-50.826-6.981c-5.585-6.423-28.204-38.815-28.204-67.859
			c0-44.96,31.834-76.795,84.894-76.795c16.477,0,34.348,3.351,46.915,8.657l2.234,3.63l-5.863,22.62
			c-10.892-5.305-24.018-8.098-38.259-8.098c-42.448-0.838-59.482,20.665-59.482,49.987c0,20.106,13.684,45.239,13.684,45.239
			S1273.645,593.172,1292.074,592.613z"/>
		<path fill="#394D6B" d="M1502.357,466.948v146.051h-17.595c-6.143,0-11.17-5.307-11.17-11.449l-0.278-20.386h-1.116
			l-15.081,21.502c-12.008,8.099-28.205,13.125-43.285,12.287c-13.963-0.837-31.834-8.378-35.185-9.493
			c-3.911-10.055-7.819-24.296-8.099-40.214v-91.038l29.6-7.26v91.315c0,15.64,5.026,27.926,5.026,27.926
			c2.793,1.117,15.081,6.702,24.575,6.702c16.476,0,23.458-5.025,42.727-23.177l0.279-95.506L1502.357,466.948z"/>
		<path fill="#394D6B" d="M1529.445,582.839l2.235-1.954c20.942,10.892,40.771,14.521,55.571,14.521
			c11.728,0,22.619-3.91,22.619-3.91s6.143-11.17,6.143-18.43c0-15.639-12.007-20.665-30.718-24.296
			c-30.718-5.306-57.247-10.053-57.247-41.05c0-26.529,22.9-43.564,57.247-43.564c19.829,0,43.286,6.144,56.411,12.567l0.279,17.872
			l-2.793,1.396c-10.891-5.865-29.881-11.17-47.752-12.008c-21.224-0.558-35.187,6.702-35.187,21.503
			c0,15.917,18.43,18.989,38.537,22.899c28.763,5.026,50.545,13.404,50.545,41.888c0,13.963-13.684,37.979-13.684,37.979
			s-24.017,7.818-44.122,7.818c-16.477,0-33.511-4.188-50.545-13.124L1529.445,582.839z"/>
	</g>
</g>
<g id="Text_-_Thin" display="none">
	<text transform="matrix(1 0 0 1 855.4194 657.8145)" display="inline" font-family="'Lenos-ThinItalic'" font-size="200">glaucus</text>
</g>
<g id="Rulers" display="none">
	<g display="inline">
		<line fill="none" stroke="#ED1C24" stroke-width="3" stroke-miterlimit="10" x1="-147" y1="360.038" x2="-147" y2="0.038"/>
		<line fill="none" stroke="#ED1C24" stroke-width="3" stroke-miterlimit="10" x1="-147" y1="1080.113" x2="-147" y2="720.113"/>
		<line fill="none" stroke="#FFF200" stroke-width="3" stroke-miterlimit="10" x1="-147" y1="720.113" x2="-147" y2="360.113"/>
	</g>
	
		<line display="inline" opacity="0.4" fill="none" stroke="#ED1C24" stroke-width="3.0575" stroke-miterlimit="10" x1="0" y1="360.075" x2="1920" y2="360.075"/>
	
		<line display="inline" opacity="0.4" fill="none" stroke="#ED1C24" stroke-width="3.0575" stroke-miterlimit="10" x1="0" y1="720.075" x2="1920" y2="720.075"/>
	<g display="inline">
		<line fill="none" stroke="#ED1C24" stroke-width="3" stroke-miterlimit="10" x1="1280" y1="-67" x2="1920" y2="-67"/>
		<line fill="none" stroke="#ED1C24" stroke-width="3" stroke-miterlimit="10" x1="0" y1="-67" x2="640" y2="-67"/>
		<line fill="none" stroke="#FFF200" stroke-width="3" stroke-miterlimit="10" x1="640" y1="-67" x2="1280" y2="-67"/>
	</g>
	
		<line display="inline" opacity="0.4" fill="none" stroke="#FFF200" stroke-width="3" stroke-miterlimit="10" x1="640" y1="0" x2="640" y2="1080"/>
	
		<line display="inline" opacity="0.4" fill="none" stroke="#FFF200" stroke-width="3" stroke-miterlimit="10" x1="1280" y1="0" x2="1280" y2="1080"/>
</g>
</svg>
