<svg xmlns="http://www.w3.org/2000/svg" viewbox="0 0 850 624" width="850" height="624"><defs><linearGradient id="9440707596070704423" x1="705.5518309996276" x2="496.07947162527546" y1="787.4900728359253" y2="1036.336935852075" gradientTransform="matrix(0.00234209865310746,-0,0,0.0016020749529716111,-0.9918378098438386,-0.7302409492093342)"><stop offset="0" stop-color="#47133CFF" /><stop offset="1" stop-color="#3055DCFF" /></linearGradient><linearGradient id="1172822271843546035" x1="144.8981734018103" x2="354.37053277616656" y1="787.4900728359255" y2="1036.3369358520779" gradientTransform="matrix(0.002342098653107413,-0,0,0.001602074952971593,0.000000000000004198886688386695,-0.73024094920932)"><stop offset="0" stop-color="#47133CFF" /><stop offset="1" stop-color="#3055DCFF" /></linearGradient></defs><g transform="matrix(1, -0, -0, 1, 0.000000000001906474977886319, -455.809478735586)">
<g transform="matrix(1, 0, 0, 1, 0, 0)">
	<g class="artboard" transform="matrix(1, 0, 0, 1, 0, 0)">
		<path class="vector-data" d="M423.569585,921.490556C423.560109,924.923049 422.926111,939.193023 425.225002,948.160242 C427.276435,968.555552 432.538514,989.173617 449.662824,995.236396 C467.297801,1001.479974 499.844955,990.483056 523.255738,997.355486 C539.222624,1002.042698 565.437940,1029.954090 582.130069,1035.499108 C599.687357,1041.331526 626.516639,1026.805687 643.107055,1031.260928 C654.686178,1034.370420 674.914425,1050.862229 685.160149,1054.570919 C693.754293,1057.681779 718.028113,1056.417313 725.110588,1058.809099 C753.440490,1068.376242 754.440187,1076.697846 771.368991,1080.000000 C816.478906,1051.195157 818.952804,992.381562 825.412924,976.980361 C826.843643,973.569467 827.697854,960.817804 829.050837,957.419747 C846.820752,912.790048 857.808095,880.576430 844.668034,893.939654 C836.669267,902.074268 820.510037,919.700991 802.184451,945.392830 C793.346872,961.615672 783.138800,972.046155 775.987342,979.747083 C759.780083,1003.730231 751.663119,1018.169058 743.431584,1021.342094 C737.126644,1023.772481 757.594119,995.969904 757.717884,983.863708 C758.012554,955.040420 763.069932,969.946601 774.291648,936.259269 C779.754782,919.859065 791.796247,836.930827 796.541491,820.339083 C813.239892,761.953129 830.226999,728.036634 820.038307,738.594770 C810.348862,748.635555 756.393135,823.434684 721.519397,882.171102 C714.029771,894.785575 719.034071,906.877745 713.309488,917.476757 C699.264880,943.480218 681.726032,973.560990 672.422835,977.377580 C668.494819,978.989030 672.422835,977.377580 659.735941,971.194488 C652.866850,967.846763 667.946777,954.146684 675.840043,931.737607 C687.603160,898.341978 697.423539,848.142684 707.836215,804.498660 C729.462545,713.853371 739.962851,617.887728 729.729306,623.262962 C720.495762,628.112940 675.020079,702.409885 636.683669,783.315267 C631.760586,793.704972 635.873672,808.240273 631.210397,818.620922 C624.018060,834.631368 610.982941,846.693902 603.844033,860.987709 C579.568065,909.594022 555.423768,941.800875 546.960641,932.995083 C536.518509,922.130157 553.679462,898.271836 571.004396,820.974633 C574.289049,806.319773 584.228250,766.577959 587.424215,750.363322 C591.169429,731.362077 586.333297,696.906223 590.160851,677.398300 C593.164185,662.091186 612.486883,633.256934 614.790578,618.555541 C625.634447,549.353689 607.998130,486.978457 606.580669,465.564368 C604.099351,428.078213 569.257294,502.493656 519.219553,622.625039 C513.907712,635.377789 477.700607,670.056519 477.958759,682.105721 C498.618390,809.996592 423.849747,835.466233 423.569585,921.490556 " fill="url('#9440707596070704423')" stroke="#000000" stroke-width="0" stroke-dasharray="none" stroke-dashoffset="0" stroke-linecap="butt" stroke-linejoin="miter" stroke-miterlimit="4" />
		<path class="vector-data" d="M426.880420,921.490556C426.889895,924.923049 427.523893,939.193023 425.225002,948.160242 C423.173569,968.555552 417.911491,989.173617 400.787180,995.236396 C383.152203,1001.479974 350.605050,990.483056 327.194266,997.355486 C311.227380,1002.042698 285.012065,1029.954090 268.319935,1035.499108 C250.762647,1041.331526 223.933365,1026.805687 207.342949,1031.260928 C195.763827,1034.370420 175.535579,1050.862229 165.289855,1054.570919 C156.695712,1057.681779 132.421892,1056.417313 125.339416,1058.809099 C97.009514,1068.376242 96.009818,1076.697846 79.081013,1080.000000 C33.971098,1051.195157 31.497201,992.381562 25.037080,976.980361 C23.606362,973.569467 22.752150,960.817804 21.399168,957.419747 C3.629252,912.790048 -7.358091,880.576430 5.781970,893.939654 C13.780738,902.074268 29.939968,919.700991 48.265553,945.392830 C57.103132,961.615672 67.311205,972.046155 74.462663,979.747083 C90.669921,1003.730231 98.786885,1018.169058 107.018420,1021.342094 C113.323361,1023.772481 92.855886,995.969904 92.732120,983.863708 C92.437450,955.040420 87.380073,969.946601 76.158357,936.259269 C70.695222,919.859065 58.653757,836.930827 53.908513,820.339083 C37.210112,761.953129 20.223005,728.036634 30.411697,738.594770 C40.101142,748.635555 94.056870,823.434684 128.930607,882.171102 C136.420233,894.785575 131.415933,906.877745 137.140516,917.476757 C151.185124,943.480218 168.723972,973.560990 178.027169,977.377580 C181.955185,978.989030 178.027169,977.377580 190.714063,971.194488 C197.583155,967.846763 182.503228,954.146684 174.609962,931.737607 C162.846845,898.341978 153.026465,848.142684 142.613789,804.498660 C120.987459,713.853371 110.487153,617.887728 120.720698,623.262962 C129.954243,628.112940 175.429925,702.409885 213.766335,783.315267 C218.689419,793.704972 214.576332,808.240273 219.239608,818.620922 C226.431944,834.631368 239.467064,846.693902 246.605972,860.987709 C270.881939,909.594022 295.026237,941.800875 303.489363,932.995083 C313.931496,922.130157 296.770542,898.271836 279.445608,820.974633 C276.160955,806.319773 266.221754,766.577959 263.025790,750.363322 C259.280575,731.362077 264.116708,696.906223 260.289153,677.398300 C257.285819,662.091186 237.963121,633.256934 235.659426,618.555541 C224.815557,549.353689 242.451874,486.978457 243.869335,465.564368 C246.350653,428.078213 281.192711,502.493656 331.230451,622.625039 C336.542292,635.377789 372.749397,670.056519 372.491245,682.105721 C351.831614,809.996592 426.600257,835.466233 426.880420,921.490556 " fill="url('#1172822271843546035')" stroke="#000000" stroke-width="0" stroke-dasharray="none" stroke-dashoffset="0" stroke-linecap="butt" stroke-linejoin="miter" stroke-miterlimit="4" />
	</g>
</g></g></svg>