<svg xmlns="http://www.w3.org/2000/svg" viewbox="0 0 789 582" width="789" height="582"><defs><radialGradient id="14091169720605744283" cx="755.2442104550427" cy="582.3099204092943" r="578.000339835197" gradientTransform="matrix(0.002522181401620453,-0,0,0.0017171377424033331,-0.9916492025005977,-0.8545087617956043)"><stop offset="0" stop-color="#007BFFFF" /><stop offset="1" stop-color="#50E2EAFF" /></radialGradient><radialGradient id="10188600582579305126" cx="34.409222569640065" cy="582.3099204092941" r="578.0003398351969" gradientTransform="matrix(0.0025221814016204535,-0,0,0.001717137742403333,0.0000000000000007422291875651664,-0.8545087617956036)"><stop offset="0" stop-color="#007BFFFF" /><stop offset="1" stop-color="#50E2EAFF" /></radialGradient></defs><g transform="matrix(1, -0, -0, 1, 0.00000000000018059201866132274, -497.6355365642479)">
<g transform="matrix(1, 0, 0, 1, 0, 0)">
	<g class="artboard" transform="matrix(1, 0, 0, 1, 0, 0)">
		<path class="vector-data" d="M393.171299,963.316613Q393.161824,966.749107 394.826717,989.986299 C396.878149,1010.381610 526.115321,1020.697810 542.807450,1026.242828 C560.364738,1032.075246 655.069613,1080.000000 697.069613,1080.000000 C725.029110,1068.855148 732.671646,1011.772659 743.893362,978.085327 C749.356496,961.685123 761.397961,878.756885 766.143205,862.165140 C782.841606,803.779187 788.276858,794.091613 789.640021,780.420828 C790.722668,769.563274 725.994849,865.260742 691.121112,923.997160 C683.631486,936.611632 651.327747,1015.387048 642.024550,1019.203638 C638.096533,1020.815088 642.024550,1019.203638 629.337655,1013.020545 C622.468564,1009.672821 637.548491,995.972741 645.441757,973.563664 C657.204874,940.168036 667.025253,889.968742 677.437930,846.324718 C699.064259,755.679429 709.564566,659.713786 699.331021,665.089020 C690.097476,669.938998 644.621793,744.235943 606.285384,825.141325 C601.362300,835.531029 580.584655,888.519960 573.445747,902.813767 C549.169779,951.420079 525.025482,983.626933 516.562355,974.821141 C506.120223,963.956214 526.720336,945.004991 544.045270,867.707788 C547.329922,853.052928 553.776051,757.886657 556.972015,741.672020 C560.717230,722.670775 575.674281,656.191135 577.977976,641.489743 C588.821845,572.287890 577.599844,528.804514 576.182384,507.390426 C573.701066,469.904271 538.859008,544.319714 488.821267,664.451097 C483.509426,677.203847 393.451461,877.292291 393.171299,963.316613 " fill="url('#14091169720605744283')" stroke="#000000" stroke-width="0" stroke-dasharray="none" stroke-dashoffset="0" stroke-linecap="butt" stroke-linejoin="miter" stroke-miterlimit="4" />
		<path class="vector-data" d="M396.482134,963.316613Q396.491609,966.749107 394.826717,989.986299 C392.775284,1010.381610 263.538112,1020.697810 246.845983,1026.242828 C229.288695,1032.075246 134.583820,1080.000000 92.583820,1080.000000 C64.624323,1068.855148 56.981787,1011.772659 45.760071,978.085327 C40.296937,961.685123 28.255472,878.756885 23.510228,862.165140 C6.811827,803.779187 1.376575,794.091613 0.013412,780.420828 C-1.069234,769.563274 63.658584,865.260742 98.532321,923.997160 C106.021947,936.611632 138.325686,1015.387048 147.628883,1019.203638 C151.556900,1020.815088 147.628883,1019.203638 160.315778,1013.020545 C167.184869,1009.672821 152.104942,995.972741 144.211676,973.563664 C132.448559,940.168036 122.628180,889.968742 112.215503,846.324718 C90.589174,755.679429 80.088867,659.713786 90.322412,665.089020 C99.555957,669.938998 145.031640,744.235943 183.368049,825.141325 C188.291133,835.531029 209.068778,888.519960 216.207686,902.813767 C240.483654,951.420079 264.627951,983.626933 273.091078,974.821141 C283.533210,963.956214 262.933097,945.004991 245.608163,867.707788 C242.323511,853.052928 235.877382,757.886657 232.681418,741.672020 C228.936203,722.670775 213.979152,656.191135 211.675457,641.489743 C200.831588,572.287890 212.053589,528.804514 213.471049,507.390426 C215.952367,469.904271 250.794425,544.319714 300.832166,664.451097 C306.144007,677.203847 396.201972,877.292291 396.482134,963.316613 " fill="url('#10188600582579305126')" stroke="#000000" stroke-width="0" stroke-dasharray="none" stroke-dashoffset="0" stroke-linecap="butt" stroke-linejoin="miter" stroke-miterlimit="4" />
	</g>
</g></g></svg>